<svg width="23" height="19" viewBox="0 0 23 19" fill="none" xmlns="http://www.w3.org/2000/svg">
<path d="M7.97602 9.39359C9.17533 9.39359 10.3255 8.90972 11.1736 8.04843C12.0216 7.18714 12.498 6.01897 12.498 4.80092C12.498 3.58287 12.0216 2.41471 11.1736 1.55341C10.3255 0.692121 9.17533 0.208252 7.97602 0.208252C6.77671 0.208252 5.62652 0.692121 4.77848 1.55341C3.93043 2.41471 3.45401 3.58287 3.45401 4.80092C3.45401 6.01897 3.93043 7.18714 4.77848 8.04843C5.62652 8.90972 6.77671 9.39359 7.97602 9.39359ZM6.36152 11.1158C2.88169 11.1158 0.0625 13.9791 0.0625 17.5133C0.0625 18.1017 0.532365 18.5789 1.11175 18.5789H14.8403C14.9039 18.5789 14.9639 18.5718 15.0275 18.561C12.332 16.584 11.5018 13.5019 11.3852 11.3778C10.8164 11.2055 10.2158 11.1158 9.59405 11.1158H6.36152ZM17.2709 8.30642L13.0315 10.0287C12.71 10.1614 12.498 10.4772 12.498 10.8288C12.498 13.1 13.413 16.8854 17.2603 18.5143C17.4687 18.604 17.7054 18.604 17.9138 18.5143C21.7576 16.8854 22.6726 13.1 22.6726 10.8288C22.6726 10.4772 22.4606 10.1614 22.1391 10.0287L17.8997 8.30642C17.6983 8.22389 17.4722 8.22389 17.2709 8.30642ZM20.9556 11.4029C20.8178 13.222 19.9947 15.5901 17.5853 16.7742V10.0323L20.9556 11.4029Z" fill="#D3FE8A"/>
</svg>
