<svg width="37" height="34" viewBox="0 0 37 34" fill="none" xmlns="http://www.w3.org/2000/svg">
<g clip-path="url(#clip0_222_1216)">
<path fill-rule="evenodd" clip-rule="evenodd" d="M36.1681 17.3462C36.1681 26.5407 28.1998 33.9904 18.3651 33.9904C8.56354 33.9904 0.595215 26.5407 0.595215 17.3462C0.595215 8.18259 8.56354 0.73291 18.3651 0.73291C28.1998 0.73291 36.1681 8.18259 36.1681 17.3462Z" fill="#EB440F"/>
<path d="M14.5699 13.2047C14.4014 13.2047 14.2398 13.1422 14.1207 13.0308C14.0016 12.9194 13.9346 12.7683 13.9346 12.6108V10.2353C13.9346 10.0778 14.0016 9.92674 14.1207 9.81536C14.2398 9.70399 14.4014 9.64142 14.5699 9.64142C14.7384 9.64142 14.8999 9.70399 15.0191 9.81536C15.1382 9.92674 15.2051 10.0778 15.2051 10.2353V12.6108C15.2051 12.7683 15.1382 12.9194 15.0191 13.0308C14.8999 13.1422 14.7384 13.2047 14.5699 13.2047ZM22.1926 13.2047C22.0242 13.2047 21.8626 13.1422 21.7435 13.0308C21.6243 12.9194 21.5574 12.7683 21.5574 12.6108V10.2353C21.5574 10.0778 21.6243 9.92674 21.7435 9.81536C21.8626 9.70399 22.0242 9.64142 22.1926 9.64142C22.3611 9.64142 22.5227 9.70399 22.6418 9.81536C22.7609 9.92674 22.8279 10.0778 22.8279 10.2353V12.6108C22.8279 12.7683 22.7609 12.9194 22.6418 13.0308C22.5227 13.1422 22.3611 13.2047 22.1926 13.2047Z" fill="#F9F9F9"/>
<path d="M24.7332 25.0821H12.0286C10.9779 25.0821 10.1229 24.2828 10.1229 23.3005V12.6106C10.1229 11.6283 10.9779 10.8289 12.0286 10.8289H24.7332C25.7839 10.8289 26.6389 11.6283 26.6389 12.6106V23.3005C26.6389 24.2828 25.7839 25.0821 24.7332 25.0821ZM12.0286 12.0167C11.8601 12.0167 11.6986 12.0793 11.5794 12.1906C11.4603 12.302 11.3934 12.4531 11.3934 12.6106V23.3005C11.3934 23.458 11.4603 23.609 11.5794 23.7204C11.6986 23.8318 11.8601 23.8944 12.0286 23.8944H24.7332C24.9017 23.8944 25.0633 23.8318 25.1824 23.7204C25.3015 23.609 25.3684 23.458 25.3684 23.3005V12.6106C25.3684 12.4531 25.3015 12.302 25.1824 12.1906C25.0633 12.0793 24.9017 12.0167 24.7332 12.0167H12.0286Z" fill="#F9F9F9"/>
<path d="M26.0037 15.5801H10.7582C10.5897 15.5801 10.4281 15.5175 10.309 15.4062C10.1899 15.2948 10.1229 15.1437 10.1229 14.9862C10.1229 14.8287 10.1899 14.6777 10.309 14.5663C10.4281 14.4549 10.5897 14.3923 10.7582 14.3923H26.0037C26.1721 14.3923 26.3337 14.4549 26.4528 14.5663C26.572 14.6777 26.6389 14.8287 26.6389 14.9862C26.6389 15.1437 26.572 15.2948 26.4528 15.4062C26.3337 15.5175 26.1721 15.5801 26.0037 15.5801ZM15.84 17.9556C15.6715 17.9556 15.5099 17.8931 15.3908 17.7817C15.2717 17.6703 15.2048 17.5193 15.2048 17.3618C15.2048 17.2042 15.2717 17.0532 15.3908 16.9418C15.5099 16.8304 15.6715 16.7679 15.84 16.7679C16.0085 16.7679 16.17 16.8304 16.2892 16.9418C16.4083 17.0532 16.4752 17.2042 16.4752 17.3618C16.4752 17.5193 16.4083 17.6703 16.2892 17.7817C16.17 17.8931 16.0085 17.9556 15.84 17.9556ZM18.3809 17.9556C18.2124 17.9556 18.0509 17.8931 17.9317 17.7817C17.8126 17.6703 17.7457 17.5193 17.7457 17.3618C17.7457 17.2042 17.8126 17.0532 17.9317 16.9418C18.0509 16.8304 18.2124 16.7679 18.3809 16.7679C18.5494 16.7679 18.711 16.8304 18.8301 16.9418C18.9492 17.0532 19.0161 17.2042 19.0161 17.3618C19.0161 17.5193 18.9492 17.6703 18.8301 17.7817C18.711 17.8931 18.5494 17.9556 18.3809 17.9556ZM20.9218 17.9556C20.7534 17.9556 20.5918 17.8931 20.4727 17.7817C20.3535 17.6703 20.2866 17.5193 20.2866 17.3618C20.2866 17.2042 20.3535 17.0532 20.4727 16.9418C20.5918 16.8304 20.7534 16.7679 20.9218 16.7679C21.0903 16.7679 21.2519 16.8304 21.371 16.9418C21.4901 17.0532 21.5571 17.2042 21.5571 17.3618C21.5571 17.5193 21.4901 17.6703 21.371 17.7817C21.2519 17.8931 21.0903 17.9556 20.9218 17.9556ZM23.4628 17.9556C23.2943 17.9556 23.1327 17.8931 23.0136 17.7817C22.8944 17.6703 22.8275 17.5193 22.8275 17.3618C22.8275 17.2042 22.8944 17.0532 23.0136 16.9418C23.1327 16.8304 23.2943 16.7679 23.4628 16.7679C23.6312 16.7679 23.7928 16.8304 23.9119 16.9418C24.0311 17.0532 24.098 17.2042 24.098 17.3618C24.098 17.5193 24.0311 17.6703 23.9119 17.7817C23.7928 17.8931 23.6312 17.9556 23.4628 17.9556ZM13.2991 20.3312C13.1306 20.3312 12.969 20.2686 12.8499 20.1572C12.7308 20.0459 12.6638 19.8948 12.6638 19.7373C12.6638 19.5798 12.7308 19.4287 12.8499 19.3173C12.969 19.206 13.1306 19.1434 13.2991 19.1434C13.4675 19.1434 13.6291 19.206 13.7483 19.3173C13.8674 19.4287 13.9343 19.5798 13.9343 19.7373C13.9343 19.8948 13.8674 20.0459 13.7483 20.1572C13.6291 20.2686 13.4675 20.3312 13.2991 20.3312ZM15.84 20.3312C15.6715 20.3312 15.5099 20.2686 15.3908 20.1572C15.2717 20.0459 15.2048 19.8948 15.2048 19.7373C15.2048 19.5798 15.2717 19.4287 15.3908 19.3173C15.5099 19.206 15.6715 19.1434 15.84 19.1434C16.0085 19.1434 16.17 19.206 16.2892 19.3173C16.4083 19.4287 16.4752 19.5798 16.4752 19.7373C16.4752 19.8948 16.4083 20.0459 16.2892 20.1572C16.17 20.2686 16.0085 20.3312 15.84 20.3312ZM18.3809 20.3312C18.2124 20.3312 18.0509 20.2686 17.9317 20.1572C17.8126 20.0459 17.7457 19.8948 17.7457 19.7373C17.7457 19.5798 17.8126 19.4287 17.9317 19.3173C18.0509 19.206 18.2124 19.1434 18.3809 19.1434C18.5494 19.1434 18.711 19.206 18.8301 19.3173C18.9492 19.4287 19.0161 19.5798 19.0161 19.7373C19.0161 19.8948 18.9492 20.0459 18.8301 20.1572C18.711 20.2686 18.5494 20.3312 18.3809 20.3312ZM20.9218 20.3312C20.7534 20.3312 20.5918 20.2686 20.4727 20.1572C20.3535 20.0459 20.2866 19.8948 20.2866 19.7373C20.2866 19.5798 20.3535 19.4287 20.4727 19.3173C20.5918 19.206 20.7534 19.1434 20.9218 19.1434C21.0903 19.1434 21.2519 19.206 21.371 19.3173C21.4901 19.4287 21.5571 19.5798 21.5571 19.7373C21.5571 19.8948 21.4901 20.0459 21.371 20.1572C21.2519 20.2686 21.0903 20.3312 20.9218 20.3312ZM23.4628 20.3312C23.2943 20.3312 23.1327 20.2686 23.0136 20.1572C22.8944 20.0459 22.8275 19.8948 22.8275 19.7373C22.8275 19.5798 22.8944 19.4287 23.0136 19.3173C23.1327 19.206 23.2943 19.1434 23.4628 19.1434C23.6312 19.1434 23.7928 19.206 23.9119 19.3173C24.0311 19.4287 24.098 19.5798 24.098 19.7373C24.098 19.8948 24.0311 20.0459 23.9119 20.1572C23.7928 20.2686 23.6312 20.3312 23.4628 20.3312ZM13.2991 22.7067C13.1306 22.7067 12.969 22.6441 12.8499 22.5328C12.7308 22.4214 12.6638 22.2703 12.6638 22.1128C12.6638 21.9553 12.7308 21.8043 12.8499 21.6929C12.969 21.5815 13.1306 21.5189 13.2991 21.5189C13.4675 21.5189 13.6291 21.5815 13.7483 21.6929C13.8674 21.8043 13.9343 21.9553 13.9343 22.1128C13.9343 22.2703 13.8674 22.4214 13.7483 22.5328C13.6291 22.6441 13.4675 22.7067 13.2991 22.7067ZM15.84 22.7067C15.6715 22.7067 15.5099 22.6441 15.3908 22.5328C15.2717 22.4214 15.2048 22.2703 15.2048 22.1128C15.2048 21.9553 15.2717 21.8043 15.3908 21.6929C15.5099 21.5815 15.6715 21.5189 15.84 21.5189C16.0085 21.5189 16.17 21.5815 16.2892 21.6929C16.4083 21.8043 16.4752 21.9553 16.4752 22.1128C16.4752 22.2703 16.4083 22.4214 16.2892 22.5328C16.17 22.6441 16.0085 22.7067 15.84 22.7067ZM18.3809 22.7067C18.2124 22.7067 18.0509 22.6441 17.9317 22.5328C17.8126 22.4214 17.7457 22.2703 17.7457 22.1128C17.7457 21.9553 17.8126 21.8043 17.9317 21.6929C18.0509 21.5815 18.2124 21.5189 18.3809 21.5189C18.5494 21.5189 18.711 21.5815 18.8301 21.6929C18.9492 21.8043 19.0161 21.9553 19.0161 22.1128C19.0161 22.2703 18.9492 22.4214 18.8301 22.5328C18.711 22.6441 18.5494 22.7067 18.3809 22.7067Z" fill="#F9F9F9"/>
</g>
<defs>
<clipPath id="clip0_222_1216">
<rect width="35.5729" height="33.2575" fill="white" transform="translate(0.595139 0.731934)"/>
</clipPath>
</defs>
</svg>
