<svg width="35" height="35" viewBox="0 0 35 35" fill="none" xmlns="http://www.w3.org/2000/svg">
<g clip-path="url(#clip0_246_122)">
<path d="M35 17.4838C35 27.16 27.16 35 17.5162 35C7.84 35 0 27.16 0 17.4838C0 7.84 7.84 0 17.5162 0C27.16 0 35 7.84 35 17.4838Z" fill="#131313"/>
<path d="M22.55 20.6252H14.825C14.6744 20.6252 14.5289 20.5708 14.4152 20.472C14.3015 20.3733 14.2273 20.2368 14.2062 20.0877L13.0325 11.8752H10.45C10.2842 11.8752 10.1252 11.8093 10.008 11.6921C9.8908 11.5749 9.82495 11.4159 9.82495 11.2502C9.82495 11.0844 9.8908 10.9254 10.008 10.8082C10.1252 10.691 10.2842 10.6252 10.45 10.6252H13.575C13.7255 10.6252 13.8711 10.6796 13.9847 10.7783C14.0984 10.8771 14.1726 11.0136 14.1937 11.1627L14.4737 13.1252H23.3C23.5776 13.1249 23.8518 13.1863 24.1027 13.305C24.3537 13.4236 24.5752 13.5965 24.7511 13.8113C24.9271 14.026 25.0531 14.2771 25.1202 14.5465C25.1872 14.8159 25.1935 15.0968 25.1387 15.3689L24.3887 19.1177C24.3026 19.5422 24.0727 19.9241 23.7377 20.1988C23.4027 20.4734 22.9832 20.624 22.55 20.6252ZM15.3662 19.3752H22.55C22.6941 19.3749 22.8338 19.3249 22.9454 19.2336C23.057 19.1423 23.1337 19.0152 23.1625 18.8739L23.9125 15.1239C23.9308 15.0332 23.9287 14.9395 23.9064 14.8497C23.8842 14.7599 23.8422 14.6761 23.7836 14.6045C23.725 14.5328 23.6512 14.4751 23.5676 14.4354C23.4839 14.3958 23.3925 14.3752 23.3 14.3752H14.6525L15.3662 19.3752Z" fill="#F9F9F9"/>
<path d="M24.2 24.3751H14.9725C14.6527 24.3764 14.338 24.2953 14.0587 24.1396C13.7793 23.9839 13.5447 23.759 13.3775 23.4864C13.2084 23.2148 13.112 22.9042 13.0978 22.5845C13.0836 22.2648 13.1519 21.9469 13.2963 21.6614L14.2663 19.7201C14.3404 19.5717 14.4704 19.4589 14.6277 19.4064C14.785 19.3539 14.9567 19.366 15.105 19.4401C15.2534 19.5142 15.3662 19.6442 15.4187 19.8015C15.4713 19.9588 15.4591 20.1305 15.385 20.2789L14.415 22.2201C14.3663 22.315 14.3432 22.421 14.3481 22.5275C14.3529 22.6341 14.3855 22.7375 14.4425 22.8276C14.4978 22.9188 14.5758 22.9941 14.669 23.046C14.7621 23.0979 14.8671 23.1248 14.9738 23.1239H24.2013C24.2834 23.1239 24.3648 23.1402 24.4407 23.1717C24.5165 23.2032 24.5854 23.2494 24.6435 23.3075C24.7015 23.3657 24.7475 23.4347 24.7789 23.5106C24.8103 23.5866 24.8264 23.6679 24.8263 23.7501C24.8262 23.8323 24.8099 23.9136 24.7784 23.9895C24.7469 24.0653 24.7008 24.1343 24.6426 24.1923C24.5844 24.2503 24.5154 24.2964 24.4395 24.3277C24.3636 24.3591 24.2822 24.3752 24.2 24.3751Z" fill="#F9F9F9"/>
</g>
<defs>
<clipPath id="clip0_246_122">
<rect width="35" height="35" fill="white"/>
</clipPath>
</defs>
</svg>
