<svg height="auto" viewBox="0 0 2000 1000" xmlns="http://www.w3.org/2000/svg"><path d="M0 993.326c13.32-4.023 195.36-58.366 222-67.06 26.64-8.695 195.36-68.152 222-77.85 26.64-9.697 195.36-72.446 222-83.772 26.64-11.325 195.36-94.623 222-104.99 26.64-10.367 195.36-62.336 222-67.793 26.64-5.457 195.36-5.055 222-23.152 26.64-18.097 195.36-260.577 222-278.462 26.64-17.885 195.36-6.992 222-19.62 26.64-12.627 208.68-179.39 222-190.84" fill="#444cf71a"/><path d="M0 993.326c13.32-4.023 195.36-58.366 222-67.06 26.64-8.695 195.36-68.152 222-77.85 26.64-9.697 195.36-72.446 222-83.772 26.64-11.325 195.36-94.623 222-104.99 26.64-10.367 195.36-62.336 222-67.793 26.64-5.457 195.36-5.055 222-23.152 26.64-18.097 195.36-260.577 222-278.462 26.64-17.885 195.36-6.992 222-19.62 26.64-12.627 208.68-179.39 222-190.84" fill="none" stroke="#444cf7" stroke-width="4"/><g fill="#444cf7"><circle cy="993.326" r="8"/>,<circle cx="222" cy="926.265" r="8"/>,<circle cx="444" cy="848.416" r="8"/>,<circle cx="666" cy="764.644" r="8"/>,<circle cx="888" cy="659.654" r="8"/>,<circle cx="1110" cy="591.861" r="8"/>,<circle cx="1332" cy="568.709" r="8"/>,<circle cx="1554" cy="290.247" r="8"/>,<circle cx="1776" cy="270.628" r="8"/>,<circle cx="1998" cy="79.787" r="8"/></g></svg>