<svg width="35" height="35" viewBox="0 0 35 35" fill="none" xmlns="http://www.w3.org/2000/svg">
<path d="M35 17.5C35 27.165 27.165 35 17.5 35C7.83502 35 0 27.165 0 17.5C0 7.83502 7.83502 0 17.5 0C27.165 0 35 7.83502 35 17.5Z" fill="#131313"/>
<path d="M25.261 10.7372H11.1002C10.1266 10.7372 9.33896 11.5337 9.33896 12.5073L9.3301 23.1278C9.3301 24.1014 10.1266 24.8979 11.1002 24.8979H25.261C26.2345 24.8979 27.0311 24.1014 27.0311 23.1278V12.5073C27.0311 11.5337 26.2345 10.7372 25.261 10.7372ZM24.3759 23.1278H11.9852C11.4985 23.1278 11.1002 22.7296 11.1002 22.2428V14.2774L17.2424 18.1185C17.8177 18.4813 18.5435 18.4813 19.1187 18.1185L25.261 14.2774V22.2428C25.261 22.7296 24.8627 23.1278 24.3759 23.1278ZM18.1806 16.9325L11.1002 12.5073H25.261L18.1806 16.9325Z" fill="white"/>
</svg>
