<svg width="23" height="23" viewBox="0 0 23 23" stroke="#D3FE8A" fill="#D3FE8A" xmlns="http://www.w3.org/2000/svg">
<path d="M16.2963 3.21765C16.2963 2.90533 16.4204 2.6058 16.6412 2.38495C16.8621 2.16411 17.1616 2.04004 17.4739 2.04004H19.8292C20.1415 2.04004 20.441 2.16411 20.6618 2.38495C20.8827 2.6058 21.0068 2.90533 21.0068 3.21765V7.92808C21.0068 8.2404 20.8827 8.53993 20.6618 8.76077C20.441 8.98161 20.1415 9.10568 19.8292 9.10568H17.4739C17.1616 9.10568 16.8621 8.98161 16.6412 8.76077C16.4204 8.53993 16.2963 8.2404 16.2963 7.92808V3.21765ZM2.16504 14.9937C2.16504 14.6814 2.28911 14.3819 2.50995 14.161C2.7308 13.9402 3.03033 13.8161 3.34265 13.8161H5.69786C6.01018 13.8161 6.30971 13.9402 6.53056 14.161C6.7514 14.3819 6.87547 14.6814 6.87547 14.9937V19.7042C6.87547 20.0165 6.7514 20.316 6.53056 20.5368C6.30971 20.7577 6.01018 20.8818 5.69786 20.8818H3.34265C3.03033 20.8818 2.7308 20.7577 2.50995 20.5368C2.28911 20.316 2.16504 20.0165 2.16504 19.7042V14.9937ZM2.16504 3.21765C2.16504 2.90533 2.28911 2.6058 2.50995 2.38495C2.7308 2.16411 3.03033 2.04004 3.34265 2.04004H10.4083C10.7206 2.04004 11.0201 2.16411 11.241 2.38495C11.4618 2.6058 11.5859 2.90533 11.5859 3.21765V7.92808C11.5859 8.2404 11.4618 8.53993 11.241 8.76077C11.0201 8.98161 10.7206 9.10568 10.4083 9.10568H3.34265C3.03033 9.10568 2.7308 8.98161 2.50995 8.76077C2.28911 8.53993 2.16504 8.2404 2.16504 7.92808V3.21765ZM11.5859 14.9937C11.5859 14.6814 11.71 14.3819 11.9308 14.161C12.1517 13.9402 12.4512 13.8161 12.7635 13.8161H19.8292C20.1415 13.8161 20.441 13.9402 20.6618 14.161C20.8827 14.3819 21.0068 14.6814 21.0068 14.9937V19.7042C21.0068 20.0165 20.8827 20.316 20.6618 20.5368C20.441 20.7577 20.1415 20.8818 19.8292 20.8818H12.7635C12.4512 20.8818 12.1517 20.7577 11.9308 20.5368C11.71 20.316 11.5859 20.0165 11.5859 19.7042V14.9937Z" stroke="black" stroke-width="2.35521" stroke-linecap="round" stroke-linejoin="round"/>
</svg>
