<svg version="1.1" style="font-family: Roboto; font-size: 12px;" xmlns="http://www.w3.org/2000/svg" width="1750" height="200" viewBox="0 0 1750 200" aria-hidden="false" aria-label="Interactive chart"><defs aria-hidden="true"><clipPath ><rect x="0" y="0" width="1696" height="80" fill="none"></rect></clipPath><clipPath ><rect x="0" y="0" width="1696" height="80" fill="none"></rect></clipPath><clipPath ><rect x="0" y="0" width="13.089444319233879" height="80" fill="none" ></rect></clipPath><clipPath ><rect x="-99" y="-46" width="112.08944431923388" height="400" fill="none"></rect></clipPath></defs><rect fill="#ffffff" x="0" y="0" width="1750" height="200" rx="0" ry="0" aria-hidden="true"></rect><rect fill="none" x="44" y="46" width="1696" height="80" aria-hidden="true"></rect><g data-z-index="0" aria-hidden="true"></g><rect fill="none" data-z-index="1" x="44" y="46" width="1696" height="80" aria-hidden="true"></rect><g data-z-index="1" aria-hidden="true"><path fill="none" stroke-dasharray="none" data-z-index="1" d="M 255.5 46 L 255.5 126" opacity="1"></path><path fill="none" stroke-dasharray="none" data-z-index="1" d="M 467.5 46 L 467.5 126" opacity="1"></path><path fill="none" stroke-dasharray="none" data-z-index="1" d="M 679.5 46 L 679.5 126" opacity="1"></path><path fill="none" stroke-dasharray="none" data-z-index="1" d="M 891.5 46 L 891.5 126" opacity="1"></path><path fill="none" stroke-dasharray="none" data-z-index="1" d="M 1103.5 46 L 1103.5 126" opacity="1"></path><path fill="none" stroke-dasharray="none" data-z-index="1" d="M 1315.5 46 L 1315.5 126" opacity="1"></path><path fill="none" stroke-dasharray="none" data-z-index="1" d="M 1527.5 46 L 1527.5 126" opacity="1"></path><path fill="none" stroke-dasharray="none" data-z-index="1" d="M 1739.5 46 L 1739.5 126" opacity="1"></path><path fill="none" stroke-dasharray="none" data-z-index="1" d="M 43.5 46 L 43.5 126" opacity="1"></path></g><g data-z-index="1" aria-hidden="true"><path fill="none" stroke="#e6e6e6" stroke-width="1" stroke-dasharray="none" data-z-index="1" d="M 44 126.5 L 1740 126.5" opacity="1"></path><path fill="none" stroke="#e6e6e6" stroke-width="1" stroke-dasharray="none" data-z-index="1" d="M 44 45.5 L 1740 45.5" opacity="1"></path></g><g data-z-index="2" aria-hidden="true"><path fill="none" stroke="#ccd6eb" stroke-width="1" data-z-index="7" d="M 44 126.5 L 1740 126.5"></path></g><g data-z-index="2" aria-hidden="true"><path fill="none" data-z-index="7" d="M 44 46 L 44 126"></path></g><g data-z-index="3" aria-hidden="false"><g data-z-index="0.1" opacity="1" transform="translate(44,46) scale(1 1)" clip-path="url(#highcharts-xefcs9h-282-)" aria-hidden="true"><path fill="none" d="M 106 60 C 106 60 233.2 4 318 4 C 402.8 4 445.2 48 530 48 C 614.8 48 657.2 41.6 742 41.6 C 826.8 41.6 869.2 64.8 954 64.8 C 1038.8 64.8 1081.2 32.8 1166 32.8 C 1250.8 32.8 1293.2 61.6 1378 61.6 C 1462.8 61.6 1590 16 1590 16" data-z-index="1" stroke="#6f58e9" stroke-width="2" stroke-linejoin="round" stroke-linecap="round"></path><path fill="none" d="M 106 60 C 106 60 233.2 4 318 4 C 402.8 4 445.2 48 530 48 C 614.8 48 657.2 41.6 742 41.6 C 826.8 41.6 869.2 64.8 954 64.8 C 1038.8 64.8 1081.2 32.8 1166 32.8 C 1250.8 32.8 1293.2 61.6 1378 61.6 C 1462.8 61.6 1590 16 1590 16" data-z-index="2" stroke-linecap="round" stroke-linejoin="round" stroke="rgba(192,192,192,0.0001)" stroke-width="22" style="cursor: pointer;"></path></g><g data-z-index="0.1" opacity="1" transform="translate(44,46) scale(1 1)" clip-path="url(#highcharts-xefcs9h-283-)" style="cursor: pointer;" aria-hidden="false"><path fill="#6f58e9" d="M 106 64 A 4 4 0 1 1 106.00399999933333 63.99999800000017 Z" opacity="1" tabindex="-1" role="img" aria-label="Category 1, 25. Item 1." style="outline: none;"></path><path fill="#6f58e9" d="M 318 8 A 4 4 0 1 1 318.00399999933336 7.999998000000167 Z" opacity="1" tabindex="-1" role="img" aria-label="Category 2, 95. Item 1." style="outline: none;"></path><path fill="#6f58e9" d="M 530 52 A 4 4 0 1 1 530.0039999993334 51.99999800000017 Z" opacity="1" tabindex="-1" role="img" aria-label="Category 3, 40. Item 1." style="outline: none;"></path><path fill="#6f58e9" d="M 742 45.6 A 4 4 0 1 1 742.0039999993334 45.59999800000017 Z" opacity="1" tabindex="-1" role="img" aria-label="Category 4, 48. Item 1." style="outline: none;"></path><path fill="#6f58e9" d="M 954 68.8 A 4 4 0 1 1 954.0039999993334 68.79999800000016 Z" opacity="1" tabindex="-1" role="img" aria-label="Category 5, 19. Item 1." style="outline: none;"></path><path fill="#6f58e9" d="M 1166 36.8 A 4 4 0 1 1 1166.0039999993332 36.799998000000166 Z" opacity="1" tabindex="-1" role="img" aria-label="Category 6, 59. Item 1." style="outline: none;"></path><path fill="#6f58e9" d="M 1378 65.6 A 4 4 0 1 1 1378.0039999993332 65.59999800000017 Z" opacity="1" tabindex="-1" role="img" aria-label="Category 7, 23. Item 1." style="outline: none;"></path><path fill="#6f58e9" d="M 1590 20 A 4 4 0 1 1 1590.0039999993332 19.99999800000017 Z" opacity="1" tabindex="-1" role="img" aria-label="Category 8, 80. Item 1." style="outline: none;"></path></g></g><g data-z-index="3" aria-hidden="true"><g stroke-linecap="round" style="cursor: pointer;" transform="translate(1716,10)"><title>Chart context menu</title><rect fill="#ffffff" x="0.5" y="0.5" width="24" height="22" rx="2" ry="2" stroke="none" stroke-width="1"></rect><path fill="#666666" d="M 6 6.5 L 20 6.5 M 6 11.5 L 20 11.5 M 6 16.5 L 20 16.5" data-z-index="1" stroke="#666666" stroke-width="3"></path><text font-family='Roboto-Regular,Roboto' x="0" data-z-index="1" y="15.5" style="color: rgb(51, 51, 51); font-weight: normal; fill: rgb(51, 51, 51);"></text></g></g><text font-family='Roboto-Regular,Roboto' x="875" text-anchor="middle" data-z-index="4" style="color: rgb(51, 51, 51); font-size: 18px; fill: rgb(51, 51, 51);" y="24" aria-hidden="true">FAKE DATA</text><text font-family='Roboto-Regular,Roboto' x="875" text-anchor="middle" data-z-index="4" style="color: rgb(102, 102, 102); fill: rgb(102, 102, 102);" y="45" aria-hidden="true"></text><text font-family='Roboto-Regular,Roboto' x="10" text-anchor="start" data-z-index="4" style="color: rgb(102, 102, 102); fill: rgb(102, 102, 102);" y="197" aria-hidden="true"></text><g data-z-index="7" aria-hidden="true" transform="translate(840,159)"><rect fill="none" rx="0" ry="0" x="0" y="0" width="70" height="26"></rect><g data-z-index="1"><g><g data-z-index="1" transform="translate(8,3)"><path fill="none" d="M 0 11 L 16 11" stroke="#6f58e9" stroke-width="2"></path><path fill="#6f58e9" d="M 8 15 A 4 4 0 1 1 8.003999999333336 14.999998000000167 Z" opacity="1"></path><text font-family='Roboto-Regular,Roboto' x="21" text-anchor="start" data-z-index="2" y="15" style="color: rgb(51, 51, 51); cursor: pointer; font-size: 12px; font-weight: bold; fill: rgb(51, 51, 51);">Item 1</text></g></g></g></g><g data-z-index="7" aria-hidden="true"><text font-family='Roboto-Regular,Roboto' x="150" text-anchor="middle" transform="translate(0,0)" style="color: rgb(102, 102, 102); cursor: default; font-size: 11px; fill: rgb(102, 102, 102);" y="145" opacity="1">Category 1</text><text font-family='Roboto-Regular,Roboto' x="362" text-anchor="middle" transform="translate(0,0)" style="color: rgb(102, 102, 102); cursor: default; font-size: 11px; fill: rgb(102, 102, 102);" y="145" opacity="1">Category 2</text><text font-family='Roboto-Regular,Roboto' x="574" text-anchor="middle" transform="translate(0,0)" style="color: rgb(102, 102, 102); cursor: default; font-size: 11px; fill: rgb(102, 102, 102);" y="145" opacity="1">Category 3</text><text font-family='Roboto-Regular,Roboto' x="786" text-anchor="middle" transform="translate(0,0)" style="color: rgb(102, 102, 102); cursor: default; font-size: 11px; fill: rgb(102, 102, 102);" y="145" opacity="1">Category 4</text><text font-family='Roboto-Regular,Roboto' x="998" text-anchor="middle" transform="translate(0,0)" style="color: rgb(102, 102, 102); cursor: default; font-size: 11px; fill: rgb(102, 102, 102);" y="145" opacity="1">Category 5</text><text font-family='Roboto-Regular,Roboto' x="1210" text-anchor="middle" transform="translate(0,0)" style="color: rgb(102, 102, 102); cursor: default; font-size: 11px; fill: rgb(102, 102, 102);" y="145" opacity="1">Category 6</text><text font-family='Roboto-Regular,Roboto' x="1422" text-anchor="middle" transform="translate(0,0)" style="color: rgb(102, 102, 102); cursor: default; font-size: 11px; fill: rgb(102, 102, 102);" y="145" opacity="1">Category 7</text><text font-family='Roboto-Regular,Roboto' x="1634" text-anchor="middle" transform="translate(0,0)" style="color: rgb(102, 102, 102); cursor: default; font-size: 11px; fill: rgb(102, 102, 102);" y="145" opacity="1">Category 8</text></g><g data-z-index="7" aria-hidden="true"><text font-family='Roboto-Regular,Roboto' x="29" text-anchor="end" transform="translate(0,0)" style="color: rgb(102, 102, 102); cursor: default; font-size: 11px; fill: rgb(102, 102, 102);" y="131" opacity="1">0</text><text font-family='Roboto-Regular,Roboto' x="29" text-anchor="end" transform="translate(0,0)" style="color: rgb(102, 102, 102); cursor: default; font-size: 11px; fill: rgb(102, 102, 102);" y="51" opacity="1">100</text></g></svg>