<svg width="371" height="82" viewBox="0 0 371 82" fill="none" xmlns="http://www.w3.org/2000/svg">
<line x1="301.707" y1="72.1141" x2="329.411" y2="60.3928" stroke="#008F46" stroke-width="0.748219"/>
<circle cx="303.608" cy="72.0413" r="4.09551" fill="#008F46"/>
<line x1="8.71321" y1="57.1393" x2="42.5563" y2="22.9086" stroke="#008F46" stroke-width="0.748219"/>
<line x1="8.82152" y1="69.3821" x2="55.1274" y2="69.4258" stroke="#131313" stroke-width="0.748219"/>
<line x1="55.0654" y1="69.4258" x2="74.8856" y2="69.3864" stroke="#131313" stroke-width="0.748219"/>
<line x1="132.427" y1="69.3821" x2="155.869" y2="69.3821" stroke="#131313" stroke-width="0.748219"/>
<line x1="74.8096" y1="69.39" x2="106.375" y2="62.7726" stroke="#131313" stroke-width="0.748219"/>
<line x1="106.558" y1="62.7804" x2="132.251" y2="70.3932" stroke="#131313" stroke-width="0.748219"/>
<line y1="-0.374109" x2="48.1362" y2="-0.374109" transform="matrix(-0.70307 -0.71112 -0.71112 0.70307 76.6658 57.4023)" stroke="#008F46" stroke-width="0.748219"/>
<line x1="222.761" y1="43.9762" x2="182.27" y2="10.3723" stroke="#008F46" stroke-width="0.748219"/>
<line x1="246.315" y1="51.4989" x2="222.873" y2="42.974" stroke="#008F46" stroke-width="0.748219"/>
<line x1="302.676" y1="70.6131" x2="274.972" y2="47.1703" stroke="#008F46" stroke-width="0.748219"/>
<line x1="75.0234" y1="57.088" x2="105.635" y2="43.347" stroke="#008F46" stroke-width="0.748219"/>
<line x1="247.454" y1="51.8428" x2="276.224" y2="47.5805" stroke="#008F46" stroke-width="0.748219"/>
<line x1="155.548" y1="50.8438" x2="180.057" y2="9.89228" stroke="#008F46" stroke-width="0.748219"/>
<line x1="104.527" y1="43.2578" x2="132.232" y2="26.32" stroke="#008F46" stroke-width="0.748219"/>
<line x1="132.265" y1="27.6736" x2="156.265" y2="51.7358" stroke="#008F46" stroke-width="0.748219"/>
<circle cx="106.478" cy="43.271" r="4.09551" fill="#008F46"/>
<circle cx="132.052" cy="27.2874" r="4.09551" fill="#008F46"/>
<circle cx="155.494" cy="51.7955" r="4.09551" fill="#008F46"/>
<circle cx="181.068" cy="10.2383" r="4.09551" fill="#008F46"/>
<circle cx="9.21502" cy="57.165" r="4.09551" fill="#008F46"/>
<circle cx="9.51153" cy="69.5709" r="4.09551" fill="#131313"/>
<circle cx="42.5442" cy="69.5709" r="4.09551" fill="#131313"/>
<circle cx="74.5113" cy="69.3389" r="4.09551" fill="#131313"/>
<line x1="181.644" y1="43.8671" x2="221.827" y2="69.4719" stroke="#131313" stroke-width="0.748219"/>
<line x1="222.547" y1="69.4258" x2="251.156" y2="69.4258" stroke="#131313" stroke-width="0.748219"/>
<line x1="251.094" y1="69.4258" x2="279.704" y2="69.4258" stroke="#131313" stroke-width="0.748219"/>
<circle cx="222.625" cy="69.5709" r="4.09551" fill="#131313"/>
<circle cx="247.133" cy="69.3389" r="4.09551" fill="#131313"/>
<circle cx="276.487" cy="69.5709" r="4.09551" fill="#131313"/>
<circle cx="131.844" cy="69.5709" r="4.09551" fill="#131313"/>
<circle cx="156.472" cy="69.5709" r="4.09551" fill="#131313"/>
<circle cx="182.134" cy="43.7653" r="4.09551" fill="#131313"/>
<circle cx="106.152" cy="62.9101" r="4.09551" fill="#131313"/>
<line x1="277.646" y1="69.4378" x2="303.339" y2="62.7766" stroke="#131313" stroke-width="0.748219"/>
<line x1="303.539" y1="62.7804" x2="329.232" y2="70.3932" stroke="#131313" stroke-width="0.748219"/>
<circle cx="330.248" cy="71.47" r="4.09551" fill="#131313"/>
<circle cx="303.132" cy="62.9101" r="4.09551" fill="#131313"/>
<circle cx="42.5213" cy="22.9429" r="4.09551" fill="#008F46"/>
<circle cx="74.8754" cy="57.1993" r="4.09551" fill="#008F46"/>
<line x1="329.772" y1="61.0204" x2="360.153" y2="17.8992" stroke="#008F46" stroke-width="0.748219"/>
<circle cx="360.083" cy="17.6973" r="4.09551" fill="#008F46"/>
<circle cx="329.777" cy="61.0069" r="4.09551" fill="#008F46"/>
<circle cx="275.904" cy="47.5333" r="4.09551" fill="#008F46"/>
<circle cx="247.133" cy="51.7955" r="4.09551" fill="#008F46"/>
<circle cx="222.625" cy="42.2054" r="4.09551" fill="#008F46"/>
<line x1="155.605" y1="69.4917" x2="182.244" y2="42.8525" stroke="#131313" stroke-width="0.748219"/>
</svg>
