<svg width="26" height="17" viewBox="0 0 26 17" fill="none" xmlns="http://www.w3.org/2000/svg">
<path fill-rule="evenodd" clip-rule="evenodd" d="M8.02837 2.68114C6.57571 2.68114 5.26553 3.5546 4.70682 4.89551C4.19703 6.119 3.50898 9.15221 3.19792 10.6004C3.11179 11.0015 3.07597 11.346 3.10361 11.6553C3.19623 12.6915 3.51738 13.1865 3.81742 13.4408C4.13241 13.7079 4.61088 13.8684 5.30989 13.8684C6.07943 13.8684 6.79469 13.472 7.20255 12.8194L9.13934 9.72053L11.7144 5.42885L11.1139 4.42811C11.1139 4.4281 11.1139 4.42812 11.1139 4.42811C10.4636 3.34431 9.29232 2.68114 8.02837 2.68114ZM13.0877 3.14126C12.0031 1.39255 10.0903 0.325928 8.02837 0.325928C5.62491 0.325928 3.45717 1.77109 2.53276 3.98966C1.92018 5.45988 1.18757 8.74476 0.89523 10.106C0.782521 10.6307 0.70109 11.231 0.757745 11.8649C0.888212 13.3247 1.39255 14.4728 2.2943 15.2373C3.18108 15.9892 4.28067 16.2236 5.30989 16.2236C6.89149 16.2236 8.36152 15.4088 9.19976 14.0677L11.1423 10.9597L11.1535 10.9415L13.0877 7.71777L15.0219 10.9415L15.0331 10.9597L16.9755 14.0677C17.8138 15.4088 19.2838 16.2236 20.8654 16.2236C22.0228 16.2236 23.2257 15.8935 24.129 14.9451C25.0248 14.0044 25.4526 12.6369 25.4526 10.9244C25.4526 9.83782 25.0405 8.25582 24.6585 6.98942C24.2603 5.66956 23.8308 4.49307 23.6987 4.13761C23.668 4.05474 23.6312 3.96006 23.5865 3.85964C22.6327 1.71472 20.5031 0.325928 18.1469 0.325928C16.085 0.325928 14.1723 1.39256 13.0877 3.14126ZM14.461 5.42887L17.036 9.72053L18.9728 12.8194C19.3806 13.472 20.0959 13.8684 20.8654 13.8684C21.5911 13.8684 22.0928 13.668 22.4235 13.3208C22.7617 12.9658 23.0973 12.2725 23.0973 10.9244C23.0973 10.2364 22.7975 8.97534 22.4036 7.6696C22.026 6.41746 21.6154 5.29284 21.491 4.95783C21.4691 4.89879 21.4514 4.85458 21.4346 4.81667C20.8581 3.52054 19.571 2.68114 18.1469 2.68114C16.883 2.68114 15.7117 3.34431 15.0615 4.42815L14.461 5.42887Z" fill="#D3FE8A"/>
</svg>
