<svg width="35" height="35" viewBox="0 0 35 35" fill="none" xmlns="http://www.w3.org/2000/svg">
<path d="M35 17.5C35 27.165 27.165 35 17.5 35C7.83502 35 0 27.165 0 17.5C0 7.83502 7.83502 0 17.5 0C27.165 0 35 7.83502 35 17.5Z" fill="#131313"/>
<path d="M25.7435 25.623H9.84816C9.72016 25.6244 9.59337 25.598 9.47658 25.5456C9.35979 25.4932 9.25579 25.416 9.17179 25.3194C9.08779 25.2228 9.0258 25.1091 8.99011 24.9862C8.95442 24.8633 8.94588 24.734 8.96509 24.6075L10.7312 13.1275C10.7632 12.9169 10.8701 12.725 11.0324 12.587C11.1947 12.4491 11.4013 12.3745 11.6143 12.3769H23.9774C24.1903 12.3745 24.397 12.4491 24.5593 12.587C24.7215 12.725 24.8285 12.9169 24.8604 13.1275L26.6266 24.6075C26.6458 24.734 26.6373 24.8633 26.6016 24.9862C26.5659 25.1091 26.5039 25.2228 26.4199 25.3194C26.3359 25.416 26.2319 25.4932 26.1151 25.5456C25.9983 25.598 25.8715 25.6244 25.7435 25.623ZM10.8814 23.8568H24.7103L23.2179 14.143H12.3738L10.8814 23.8568Z" fill="#F9F9F9"/>
<path d="M21.3282 16.7925C21.094 16.7925 20.8694 16.6994 20.7038 16.5338C20.5382 16.3682 20.4451 16.1436 20.4451 15.9094V12.3771C20.4451 11.6745 20.166 11.0006 19.6692 10.5038C19.1724 10.007 18.4985 9.72786 17.7959 9.72786C17.0933 9.72786 16.4195 10.007 15.9226 10.5038C15.4258 11.0006 15.1467 11.6745 15.1467 12.3771V15.9094C15.1467 16.1436 15.0536 16.3682 14.888 16.5338C14.7224 16.6994 14.4978 16.7925 14.2636 16.7925C14.0294 16.7925 13.8048 16.6994 13.6392 16.5338C13.4736 16.3682 13.3805 16.1436 13.3805 15.9094V12.3771C13.3805 11.2061 13.8457 10.083 14.6738 9.25494C15.5018 8.4269 16.6249 7.96171 17.7959 7.96171C18.9669 7.96171 20.09 8.4269 20.9181 9.25494C21.7461 10.083 22.2113 11.2061 22.2113 12.3771V15.9094C22.2113 16.1436 22.1183 16.3682 21.9526 16.5338C21.787 16.6994 21.5624 16.7925 21.3282 16.7925Z" fill="#F9F9F9"/>
</svg>
