<svg width="35" height="35" viewBox="0 0 35 35" fill="none" xmlns="http://www.w3.org/2000/svg">
<circle cx="17.5" cy="17.5" r="17.5" fill="#131313"/>
<path d="M24.9168 13.3963V22.9148C24.9168 23.3525 24.9115 23.792 24.9168 24.2297V24.2473L25.7957 23.3684H10.8402C10.6381 23.3684 10.4359 23.3666 10.2338 23.3684H10.2074L11.0863 24.2473V14.7287C11.0863 14.291 11.0916 13.8516 11.0863 13.4139V13.3963L10.2074 14.2752H25.1629C25.365 14.2752 25.5672 14.277 25.7693 14.2752H25.7957C26.0207 14.2752 26.258 14.1768 26.418 14.0186C26.5709 13.8656 26.6852 13.616 26.6746 13.3963C26.6641 13.1695 26.5902 12.934 26.418 12.774C26.2457 12.6158 26.0348 12.5174 25.7957 12.5174H10.8402C10.6381 12.5174 10.4359 12.5156 10.2338 12.5174H10.2074C9.73281 12.5174 9.32852 12.9199 9.32852 13.3963V22.9148C9.32852 23.3525 9.32324 23.792 9.32852 24.2297V24.2473C9.32852 24.7219 9.73105 25.1262 10.2074 25.1262H25.1629C25.365 25.1262 25.5672 25.1279 25.7693 25.1262H25.7957C26.2703 25.1262 26.6746 24.7236 26.6746 24.2473V14.7287C26.6746 14.291 26.6799 13.8516 26.6746 13.4139V13.3963C26.6746 13.1713 26.5762 12.934 26.418 12.774C26.265 12.6211 26.0154 12.5068 25.7957 12.5174C25.5689 12.5279 25.3334 12.6018 25.1734 12.774C25.017 12.948 24.9168 13.159 24.9168 13.3963Z" fill="#F9F9F9"/>
<path d="M25.7962 12.5195H10.8408C10.6386 12.5195 10.4365 12.5177 10.2343 12.5195H10.2079C10.4154 13.0204 10.6228 13.5197 10.8302 14.0206L11.9904 12.7866C12.6074 12.131 13.2244 11.4771 13.8396 10.8214C13.9802 10.672 14.1226 10.5208 14.2632 10.3714C14.0558 10.4575 13.8484 10.5437 13.641 10.6281H21.2945C21.646 10.6281 21.9976 10.6333 22.3492 10.6281H22.365C22.1576 10.5419 21.9501 10.4558 21.7427 10.3714L22.9029 11.6054C23.5199 12.2611 24.1369 12.915 24.7521 13.5706C24.8927 13.72 25.0351 13.8712 25.1757 14.0206C25.3269 14.1823 25.5783 14.2773 25.798 14.2773C26.0142 14.2773 26.2708 14.1823 26.4203 14.0206C26.5732 13.8536 26.6874 13.6339 26.6769 13.3984C26.6663 13.1611 26.5837 12.9519 26.4203 12.7761C26.0704 12.4052 25.7224 12.0343 25.3726 11.6634C24.7767 11.0306 24.1826 10.3978 23.5867 9.76672C23.4091 9.57688 23.2298 9.38879 23.0523 9.19895C22.8712 9.00559 22.6462 8.87551 22.3632 8.87024H13.9081C13.7499 8.87024 13.5583 8.85266 13.4072 8.90188C13.1048 9.00032 12.9378 9.21477 12.7322 9.43274C12.1785 10.0198 11.6265 10.607 11.0728 11.1958C10.6017 11.6968 10.1306 12.196 9.65951 12.697C9.6349 12.7234 9.60853 12.7515 9.58392 12.7779C9.33959 13.038 9.26224 13.4072 9.40287 13.7376C9.53822 14.0558 9.85287 14.2773 10.2062 14.2773H25.1617C25.3638 14.2773 25.566 14.279 25.7681 14.2773H25.7945C26.0195 14.2773 26.2568 14.1788 26.4167 14.0206C26.5697 13.8677 26.6839 13.6181 26.6734 13.3984C26.6628 13.1716 26.589 12.9361 26.4167 12.7761C26.2462 12.6197 26.0353 12.5195 25.7962 12.5195Z" fill="#F9F9F9"/>
<path d="M19.0614 13.397V18.2169C19.5026 17.9638 19.9438 17.7106 20.3833 17.4575C19.8032 17.1534 19.2231 16.8493 18.6413 16.5452C18.5675 16.5065 18.4937 16.4661 18.4181 16.4274C18.281 16.3589 18.1315 16.2991 17.9733 16.3061C17.8116 16.3132 17.6745 16.3518 17.5286 16.4257C17.5216 16.4292 17.5146 16.4327 17.5075 16.438C17.4688 16.4591 17.4284 16.4784 17.3897 16.4995C17.0522 16.677 16.7147 16.8528 16.3772 17.0304C16.1065 17.1727 15.8358 17.3151 15.5634 17.4558C16.0046 17.7089 16.4458 17.962 16.8853 18.2151V13.3952L16.0063 14.2741H19.9386C20.1636 14.2741 20.4009 14.1757 20.5608 14.0175C20.7138 13.8645 20.828 13.6149 20.8175 13.3952C20.8069 13.1684 20.7331 12.9329 20.5608 12.7729C20.3886 12.6147 20.1776 12.5163 19.9386 12.5163H16.0063C15.5317 12.5163 15.1274 12.9188 15.1274 13.3952V18.2151C15.1274 18.5245 15.2962 18.8181 15.5634 18.9745C15.8446 19.1397 16.1681 19.1222 16.4511 18.9745C17.0241 18.6739 17.5989 18.3733 18.172 18.0727C18.2546 18.0306 18.3354 17.9866 18.4181 17.9444H17.5304C18.1034 18.245 18.6782 18.5456 19.2513 18.8462C19.3339 18.8884 19.4147 18.9323 19.4974 18.9745C19.7786 19.1222 20.1038 19.1397 20.3851 18.9745C20.6522 18.8181 20.821 18.5263 20.821 18.2151V13.3952C20.821 13.1702 20.7226 12.9329 20.5644 12.7729C20.4114 12.62 20.1618 12.5058 19.9421 12.5163C19.7153 12.5268 19.4798 12.6007 19.3198 12.7729C19.1616 12.9487 19.0614 13.1597 19.0614 13.397Z" fill="#F9F9F9"/>
</svg>
