<svg width="25" height="25" viewBox="0 0 25 25" fill="none" xmlns="http://www.w3.org/2000/svg">
<path d="M10.875 6.04167H13.2917V8.45833H10.875V6.04167ZM10.875 10.875H13.2917V18.125H10.875V10.875ZM12.0833 0C5.41333 0 0 5.41333 0 12.0833C0 18.7533 5.41333 24.1667 12.0833 24.1667C18.7533 24.1667 24.1667 18.7533 24.1667 12.0833C24.1667 5.41333 18.7533 0 12.0833 0ZM12.0833 21.75C6.75458 21.75 2.41667 17.4121 2.41667 12.0833C2.41667 6.75458 6.75458 2.41667 12.0833 2.41667C17.4121 2.41667 21.75 6.75458 21.75 12.0833C21.75 17.4121 17.4121 21.75 12.0833 21.75Z" fill="#EB440F"/>
</svg>
