<svg width="24" height="20" viewBox="0 0 24 20" fill="none" xmlns="http://www.w3.org/2000/svg">
<path d="M22.4218 0H1.22489C0.943797 0 0.674221 0.111662 0.475461 0.310422C0.276701 0.509181 0.165039 0.778758 0.165039 1.05985V14.8378C0.165039 15.1189 0.276701 15.3885 0.475461 15.5873C0.674221 15.786 0.943797 15.8977 1.22489 15.8977H6.52412C6.80521 15.8977 7.07478 15.786 7.27354 15.5873C7.4723 15.3885 7.58397 15.1189 7.58397 14.8378C7.58397 14.5568 7.4723 14.2872 7.27354 14.0884C7.07478 13.8897 6.80521 13.778 6.52412 13.778H2.28473V2.11969H21.362V13.778H13.322L14.6924 12.4076C14.8854 12.2077 14.9922 11.94 14.9898 11.6621C14.9874 11.3842 14.876 11.1184 14.6794 10.9219C14.4829 10.7254 14.2171 10.6139 13.9392 10.6115C13.6613 10.6091 13.3936 10.7159 13.1937 10.909L10.0142 14.0885C9.8155 14.2873 9.70389 14.5568 9.70389 14.8378C9.70389 15.1189 9.8155 15.3884 10.0142 15.5872L13.1937 18.7667C13.3936 18.9598 13.6613 19.0666 13.9392 19.0642C14.2171 19.0618 14.4829 18.9503 14.6794 18.7538C14.876 18.5573 14.9874 18.2915 14.9898 18.0136C14.9922 17.7357 14.8854 17.468 14.6924 17.2681L13.322 15.8977H22.4218C22.7029 15.8977 22.9725 15.786 23.1712 15.5873C23.37 15.3885 23.4817 15.1189 23.4817 14.8378V1.05985C23.4817 0.778758 23.37 0.509181 23.1712 0.310422C22.9725 0.111662 22.7029 0 22.4218 0Z" fill="#D3FE8A"/>
</svg>
