<svg width="35" height="35" viewBox="0 0 35 35" fill="none" xmlns="http://www.w3.org/2000/svg">
<path d="M35 17.4838C35 27.16 27.16 35 17.5162 35C7.84 35 0 27.16 0 17.4838C0 7.84 7.84 0 17.5162 0C27.16 0 35 7.84 35 17.4838Z" fill="#EB440F"/>
<path d="M26.0909 11H7.90909C7.66799 11 7.43675 11.0958 7.26627 11.2663C7.09578 11.4368 7 11.668 7 11.9091V23.7273C7 23.9684 7.09578 24.1996 7.26627 24.3701C7.43675 24.5406 7.66799 24.6364 7.90909 24.6364H12.4545C12.6957 24.6364 12.9269 24.5406 13.0974 24.3701C13.2679 24.1996 13.3636 23.9684 13.3636 23.7273C13.3636 23.4862 13.2679 23.2549 13.0974 23.0844C12.9269 22.914 12.6957 22.8182 12.4545 22.8182H8.81818V12.8182H25.1818V22.8182H18.2855L19.4609 21.6427C19.6265 21.4713 19.7181 21.2416 19.7161 21.0033C19.714 20.7649 19.6184 20.5369 19.4498 20.3683C19.2813 20.1998 19.0533 20.1042 18.8149 20.1021C18.5765 20.1 18.3469 20.1917 18.1755 20.3573L15.4482 23.0845C15.2778 23.255 15.182 23.4862 15.182 23.7273C15.182 23.9683 15.2778 24.1995 15.4482 24.37L18.1755 27.0973C18.3469 27.2629 18.5765 27.3545 18.8149 27.3524C19.0533 27.3504 19.2813 27.2547 19.4498 27.0862C19.6184 26.9176 19.714 26.6896 19.7161 26.4513C19.7181 26.2129 19.6265 25.9833 19.4609 25.8118L18.2855 24.6364H26.0909C26.332 24.6364 26.5632 24.5406 26.7337 24.3701C26.9042 24.1996 27 23.9684 27 23.7273V11.9091C27 11.668 26.9042 11.4368 26.7337 11.2663C26.5632 11.0958 26.332 11 26.0909 11Z" fill="#F9F9F9"/>
</svg>
