<svg width="1318" height="322" viewBox="0 0 1318 322" fill="none" xmlns="http://www.w3.org/2000/svg">
<rect x="0.29267" y="0.29267" width="1317.41" height="321.415" fill="white" stroke="#514618" stroke-width="0.585341"/>
<path d="M71.2262 255.336C69.9435 255.331 68.8398 255.015 67.9151 254.388C66.9954 253.762 66.2869 252.855 65.7898 251.667C65.2976 250.478 65.054 249.049 65.0589 247.379C65.0589 245.713 65.305 244.294 65.7972 243.12C66.2944 241.947 67.0028 241.055 67.9226 240.443C68.8473 239.827 69.9485 239.518 71.2262 239.518C72.5039 239.518 73.6026 239.827 74.5224 240.443C75.4471 241.06 76.158 241.955 76.6552 243.128C77.1523 244.296 77.3984 245.713 77.3935 247.379C77.3935 249.054 77.1449 250.486 76.6477 251.674C76.1555 252.862 75.4496 253.77 74.5298 254.396C73.6101 255.022 72.5089 255.336 71.2262 255.336ZM71.2262 252.658C72.1012 252.658 72.7997 252.218 73.3217 251.338C73.8438 250.458 74.1023 249.138 74.0973 247.379C74.0973 246.22 73.978 245.256 73.7393 244.485C73.5057 243.714 73.1726 243.135 72.7401 242.748C72.3125 242.36 71.8079 242.166 71.2262 242.166C70.3562 242.166 69.6602 242.601 69.1381 243.471C68.6161 244.341 68.3526 245.643 68.3477 247.379C68.3477 248.552 68.4645 249.531 68.6982 250.317C68.9368 251.097 69.2724 251.684 69.7049 252.077C70.1374 252.464 70.6445 252.658 71.2262 252.658Z" fill="#131313"/>
<path d="M70.3686 204.909V185.818H71.5916V204.909H70.3686ZM73.6126 192.12C73.5529 191.518 73.2969 191.051 72.8445 190.718C72.392 190.385 71.7781 190.218 71.0025 190.218C70.4755 190.218 70.0305 190.293 69.6676 190.442C69.3047 190.586 69.0263 190.787 68.8324 191.046C68.6435 191.304 68.549 191.598 68.549 191.926C68.5391 192.199 68.5962 192.438 68.7205 192.642C68.8498 192.846 69.0263 193.022 69.25 193.171C69.4737 193.315 69.7322 193.442 70.0256 193.551C70.3189 193.656 70.6321 193.745 70.9652 193.82L72.3374 194.148C73.0036 194.297 73.6151 194.496 74.1719 194.745C74.7287 194.993 75.2109 195.299 75.6186 195.662C76.0263 196.025 76.342 196.452 76.5657 196.945C76.7944 197.437 76.9112 198.001 76.9162 198.637C76.9112 199.572 76.6726 200.382 76.2003 201.069C75.733 201.75 75.0568 202.279 74.1719 202.657C73.2919 203.03 72.2305 203.216 70.9876 203.216C69.7546 203.216 68.6808 203.027 67.766 202.65C66.8562 202.272 66.1452 201.712 65.6332 200.972C65.1261 200.226 64.8601 199.304 64.8352 198.205H67.9599C67.9947 198.717 68.1413 199.145 68.3999 199.488C68.6634 199.826 69.0138 200.082 69.4513 200.256C69.8938 200.425 70.3935 200.509 70.9503 200.509C71.4972 200.509 71.9719 200.43 72.3746 200.271C72.7823 200.112 73.098 199.89 73.3217 199.607C73.5455 199.324 73.6573 198.998 73.6573 198.63C73.6573 198.287 73.5554 197.999 73.3516 197.765C73.1527 197.531 72.8594 197.332 72.4716 197.168C72.0888 197.004 71.619 196.855 71.0621 196.721L69.3991 196.303C68.1115 195.99 67.0948 195.5 66.3491 194.834C65.6033 194.168 65.233 193.271 65.2379 192.142C65.233 191.217 65.479 190.409 65.9762 189.718C66.4783 189.027 67.1669 188.488 68.0419 188.1C68.9169 187.712 69.9112 187.518 71.0249 187.518C72.1584 187.518 73.1477 187.712 73.9929 188.1C74.843 188.488 75.5043 189.027 75.9766 189.718C76.4489 190.409 76.6925 191.21 76.7074 192.12H73.6126ZM78.9987 203V200.673L84.4351 195.64C84.8975 195.192 85.2852 194.789 85.5985 194.431C85.9166 194.074 86.1578 193.723 86.3218 193.38C86.4859 193.032 86.5679 192.657 86.5679 192.254C86.5679 191.806 86.466 191.421 86.2622 191.098C86.0583 190.77 85.7799 190.519 85.4269 190.345C85.074 190.166 84.6737 190.076 84.2263 190.076C83.759 190.076 83.3513 190.171 83.0033 190.36C82.6553 190.549 82.3868 190.82 82.1979 191.173C82.009 191.526 81.9145 191.946 81.9145 192.433H78.8495C78.8495 191.434 79.0757 190.566 79.5281 189.83C79.9806 189.094 80.6144 188.525 81.4298 188.123C82.2451 187.72 83.1847 187.518 84.2487 187.518C85.3424 187.518 86.2945 187.712 87.1048 188.1C87.9202 188.483 88.5541 189.015 89.0065 189.696C89.4589 190.377 89.6851 191.158 89.6851 192.038C89.6851 192.614 89.5708 193.184 89.3421 193.745C89.1183 194.307 88.7181 194.931 88.1414 195.617C87.5647 196.298 86.7519 197.116 85.7029 198.071L83.4731 200.256V200.36H89.8865V203H78.9987ZM95.1346 199.704L95.142 195.893H95.6044L99.2734 191.545H102.92L97.9908 197.303H97.2376L95.1346 199.704ZM92.256 203V187.727H95.4329V203H92.256ZM99.4151 203L96.0444 198.011L98.1623 195.766L103.136 203H99.4151Z" fill="#131313"/>
<path d="M70.3686 157.909V138.818H71.5916V157.909H70.3686ZM73.6126 145.12C73.5529 144.518 73.2969 144.051 72.8445 143.718C72.392 143.385 71.7781 143.218 71.0025 143.218C70.4755 143.218 70.0305 143.293 69.6676 143.442C69.3047 143.586 69.0263 143.787 68.8324 144.046C68.6435 144.304 68.549 144.598 68.549 144.926C68.5391 145.199 68.5962 145.438 68.7205 145.642C68.8498 145.846 69.0263 146.022 69.25 146.171C69.4737 146.315 69.7322 146.442 70.0256 146.551C70.3189 146.656 70.6321 146.745 70.9652 146.82L72.3374 147.148C73.0036 147.297 73.6151 147.496 74.1719 147.745C74.7287 147.993 75.2109 148.299 75.6186 148.662C76.0263 149.025 76.342 149.452 76.5657 149.945C76.7944 150.437 76.9112 151.001 76.9162 151.637C76.9112 152.572 76.6726 153.382 76.2003 154.069C75.733 154.75 75.0568 155.279 74.1719 155.657C73.2919 156.03 72.2305 156.216 70.9876 156.216C69.7546 156.216 68.6808 156.027 67.766 155.65C66.8562 155.272 66.1452 154.712 65.6332 153.972C65.1261 153.226 64.8601 152.304 64.8352 151.205H67.9599C67.9947 151.717 68.1413 152.145 68.3999 152.488C68.6634 152.826 69.0138 153.082 69.4513 153.256C69.8938 153.425 70.3935 153.509 70.9503 153.509C71.4972 153.509 71.9719 153.43 72.3746 153.271C72.7823 153.112 73.098 152.89 73.3217 152.607C73.5455 152.324 73.6573 151.998 73.6573 151.63C73.6573 151.287 73.5554 150.999 73.3516 150.765C73.1527 150.531 72.8594 150.332 72.4716 150.168C72.0888 150.004 71.619 149.855 71.0621 149.721L69.3991 149.303C68.1115 148.99 67.0948 148.5 66.3491 147.834C65.6033 147.168 65.233 146.271 65.2379 145.142C65.233 144.217 65.479 143.409 65.9762 142.718C66.4783 142.027 67.1669 141.488 68.0419 141.1C68.9169 140.712 69.9112 140.518 71.0249 140.518C72.1584 140.518 73.1477 140.712 73.9929 141.1C74.843 141.488 75.5043 142.027 75.9766 142.718C76.4489 143.409 76.6925 144.21 76.7074 145.12H73.6126ZM84.6439 156.209C83.5303 156.209 82.5384 156.017 81.6684 155.635C80.8034 155.247 80.1198 154.715 79.6176 154.039C79.1205 153.358 78.8644 152.572 78.8495 151.682H82.1009C82.1208 152.055 82.2426 152.383 82.4664 152.667C82.695 152.945 82.9983 153.161 83.3762 153.315C83.754 153.469 84.1791 153.547 84.6514 153.547C85.1436 153.547 85.5786 153.46 85.9564 153.286C86.3343 153.112 86.6301 152.87 86.8438 152.562C87.0576 152.254 87.1645 151.898 87.1645 151.496C87.1645 151.088 87.0502 150.728 86.8215 150.414C86.5977 150.096 86.2746 149.848 85.852 149.669C85.4344 149.49 84.9372 149.4 84.3605 149.4H82.9362V147.029H84.3605C84.8477 147.029 85.2778 146.944 85.6507 146.775C86.0285 146.606 86.3218 146.373 86.5306 146.074C86.7394 145.771 86.8438 145.418 86.8438 145.015C86.8438 144.632 86.7519 144.297 86.5679 144.009C86.3889 143.715 86.1354 143.487 85.8073 143.322C85.4841 143.158 85.1063 143.076 84.6737 143.076C84.2362 143.076 83.836 143.156 83.4731 143.315C83.1102 143.469 82.8193 143.69 82.6006 143.979C82.3818 144.267 82.265 144.605 82.2501 144.993H79.1553C79.1702 144.113 79.4213 143.337 79.9085 142.666C80.3957 141.995 81.0519 141.471 81.8772 141.093C82.7075 140.71 83.6446 140.518 84.6887 140.518C85.7426 140.518 86.6649 140.71 87.4553 141.093C88.2458 141.475 88.8598 141.993 89.2973 142.644C89.7398 143.29 89.9585 144.016 89.9536 144.821C89.9585 145.676 89.6926 146.39 89.1556 146.962C88.6237 147.533 87.9301 147.896 87.075 148.05V148.17C88.1986 148.314 89.0537 148.704 89.6404 149.341C90.232 149.972 90.5253 150.762 90.5203 151.712C90.5253 152.582 90.2742 153.355 89.7671 154.031C89.265 154.707 88.5715 155.239 87.6865 155.627C86.8016 156.015 85.7874 156.209 84.6439 156.209ZM95.7498 152.704L95.7573 148.893H96.2196L99.8887 144.545H103.535L98.606 150.303H97.8528L95.7498 152.704ZM92.8713 156V140.727H96.0481V156H92.8713ZM100.03 156L96.6596 151.011L98.7775 148.766L103.752 156H100.03Z" fill="#131313"/>
<path d="M35 185.455H23.3636V181.699C23.3636 180.873 23.5133 180.184 23.8125 179.631C24.108 179.074 24.5189 178.655 25.0455 178.375C25.5682 178.091 26.1686 177.949 26.8466 177.949C27.5246 177.949 28.1231 178.091 28.642 178.375C29.161 178.655 29.5663 179.072 29.858 179.625C30.1496 180.178 30.2955 180.864 30.2955 181.682V184.881H29.3239V181.71C29.3239 181.104 29.2235 180.6 29.0227 180.199C28.822 179.794 28.536 179.492 28.1648 179.295C27.7936 179.095 27.3542 178.994 26.8466 178.994C26.339 178.994 25.8958 179.095 25.517 179.295C25.1345 179.496 24.839 179.799 24.6307 180.205C24.4223 180.606 24.3182 181.114 24.3182 181.727V184.392H35V185.455ZM29.75 180.324L35 177.46V178.688L29.75 181.523V180.324ZM35 175.361H23.3636V168.611H24.3182V174.298H28.6989L28.6989 168.969H29.6534L29.6534 174.298H34.0455V168.497H35V175.361ZM23.3636 165.844L33.6193 162.207V162.105L23.3636 158.469V157.355L35 161.588V162.724L23.3636 166.957V165.844ZM35 155.361H23.3636V148.611H24.3182V154.298H28.6989V148.969H29.6534V154.298H34.0455V148.497H35V155.361ZM23.3636 136.798H35V137.832L25.2557 144.707V144.798H35V145.861H23.3636V144.832L33.1193 137.935V137.844H23.3636V136.798ZM23.3636 125.949V124.886H31.0682C31.8598 124.886 32.5682 125.072 33.1932 125.443C33.8144 125.814 34.3049 126.331 34.6648 126.994C35.0208 127.653 35.1989 128.42 35.1989 129.295C35.1989 130.167 35.0189 130.934 34.6591 131.597C34.2992 132.259 33.8087 132.777 33.1875 133.148C32.5663 133.519 31.8598 133.705 31.0682 133.705H23.3636L23.3636 132.642H30.9943C31.6117 132.642 32.1629 132.504 32.6477 132.227C33.1288 131.951 33.5076 131.562 33.7841 131.062C34.0606 130.559 34.1989 129.97 34.1989 129.295C34.1989 128.621 34.0606 128.032 33.7841 127.528C33.5076 127.025 33.1288 126.636 32.6477 126.364C32.1629 126.087 31.6117 125.949 30.9943 125.949H23.3636ZM35 121.798H23.3636V115.048H24.3182V120.736H28.6989V115.406H29.6534V120.736H34.0455V114.935H35V121.798Z" fill="#131313"/>
<path d="M70.3686 107.909V88.8182H71.5916V107.909H70.3686ZM73.6126 95.1197C73.5529 94.5181 73.2969 94.0508 72.8445 93.7177C72.392 93.3846 71.7781 93.218 71.0025 93.218C70.4755 93.218 70.0305 93.2926 69.6676 93.4418C69.3047 93.5859 69.0263 93.7873 68.8324 94.0458C68.6435 94.3043 68.549 94.5977 68.549 94.9258C68.5391 95.1992 68.5962 95.4379 68.7205 95.6417C68.8498 95.8455 69.0263 96.022 69.25 96.1712C69.4737 96.3153 69.7322 96.4421 70.0256 96.5515C70.3189 96.6559 70.6321 96.7454 70.9652 96.82L72.3374 97.1481C73.0036 97.2972 73.6151 97.4961 74.1719 97.7447C74.7287 97.9933 75.2109 98.299 75.6186 98.6619C76.0263 99.0249 76.342 99.4524 76.5657 99.9446C76.7944 100.437 76.9112 101.001 76.9162 101.637C76.9112 102.572 76.6726 103.382 76.2003 104.069C75.733 104.75 75.0568 105.279 74.1719 105.657C73.2919 106.03 72.2305 106.216 70.9876 106.216C69.7546 106.216 68.6808 106.027 67.766 105.65C66.8562 105.272 66.1452 104.712 65.6332 103.972C65.1261 103.226 64.8601 102.304 64.8352 101.205H67.9599C67.9947 101.717 68.1413 102.145 68.3999 102.488C68.6634 102.826 69.0138 103.082 69.4513 103.256C69.8938 103.425 70.3935 103.509 70.9503 103.509C71.4972 103.509 71.9719 103.43 72.3746 103.271C72.7823 103.112 73.098 102.89 73.3217 102.607C73.5455 102.324 73.6573 101.998 73.6573 101.63C73.6573 101.287 73.5554 100.999 73.3516 100.765C73.1527 100.531 72.8594 100.332 72.4716 100.168C72.0888 100.004 71.619 99.8551 71.0621 99.7209L69.3991 99.3033C68.1115 98.9901 67.0948 98.5004 66.3491 97.8342C65.6033 97.168 65.233 96.2706 65.2379 95.142C65.233 94.2173 65.479 93.4094 65.9762 92.7184C66.4783 92.0273 67.1669 91.4879 68.0419 91.1001C68.9169 90.7124 69.9112 90.5185 71.0249 90.5185C72.1584 90.5185 73.1477 90.7124 73.9929 91.1001C74.843 91.4879 75.5043 92.0273 75.9766 92.7184C76.4489 93.4094 76.6925 94.2099 76.7074 95.1197H73.6126ZM78.7675 103.315V100.772L85.1436 90.7273H87.336V94.2472H86.0384L82.0189 100.608V100.728H91.0796V103.315H78.7675ZM86.0981 106V102.54L86.1578 101.414V90.7273H89.1855V106H86.0981ZM96.1395 102.704L96.1469 98.8931H96.6093L100.278 94.5455H103.925L98.9957 100.303H98.2425L96.1395 102.704ZM93.2609 106V90.7273H96.4378V106H93.2609ZM100.42 106L97.0493 101.011L99.1672 98.7663L104.141 106H100.42Z" fill="#131313"/>
<line x1="110.403" y1="97.5972" x2="1275.6" y2="97.5972" stroke="#E5E5EF" stroke-width="0.80566" stroke-linecap="round"/>
<line x1="110.403" y1="147.264" x2="1275.6" y2="147.264" stroke="#E5E5EF" stroke-width="0.80566" stroke-linecap="round"/>
<line x1="111.037" y1="197.061" x2="771.984" y2="197.061" stroke="#E5E5EF" stroke-width="0.80566" stroke-linecap="round"/>
<line x1="110.403" y1="196.931" x2="1275.6" y2="196.931" stroke="#E5E5EF" stroke-width="0.80566" stroke-linecap="round"/>
<line x1="110.403" y1="246.597" x2="1275.6" y2="246.597" stroke="#E5E5EF" stroke-width="0.80566" stroke-linecap="round"/>
<circle cx="665.842" cy="174.157" r="5.26316" fill="#008F46"/>
<line x1="108.923" y1="239.506" x2="288.923" y2="211.506" stroke="#008F46"/>
<line x1="287.975" y1="211.501" x2="457.975" y2="202.964" stroke="#008F46"/>
<line x1="1047.96" y1="97.9656" x2="1261.96" y2="79.9656" stroke="#008F46"/>
<line x1="862.897" y1="136.975" x2="1047.9" y2="97.9746" stroke="#008F46"/>
<line x1="461.93" y1="202.969" x2="665.93" y2="173.969" stroke="#008F46"/>
<line x1="658.913" y1="173.508" x2="865.913" y2="136.971" stroke="#008F46"/>
<circle cx="108.842" cy="239.157" r="5.26316" fill="#008F46"/>
<circle cx="297.842" cy="211.157" r="5.26316" fill="#008F46"/>
<circle cx="459.842" cy="204.157" r="5.26316" fill="#008F46"/>
<circle cx="1048.84" cy="98.1574" r="5.26316" fill="#008F46"/>
<circle cx="1264.84" cy="80.6212" r="5.26316" fill="#008F46"/>
<path d="M73.15 54.4639L68.675 47.9139C71.075 47.2639 72.325 45.5389 72.325 42.8389C72.325 39.3389 70.2 37.4639 66.25 37.4639H56.125V54.4639H60.025V48.2139H64.325L68.55 54.4639H73.15ZM60.025 40.8139H65.825C67.55 40.8139 68.35 41.4639 68.35 42.8389C68.35 44.2139 67.55 44.8639 65.825 44.8639H60.025V40.8139ZM88.9986 49.1889C89.0486 48.8139 89.0486 48.5139 89.0486 48.1389C89.0486 44.0889 86.3486 41.5139 82.1236 41.5139C77.7736 41.5139 74.8736 44.1639 74.8736 48.1389C74.8736 52.3139 77.7986 54.7639 82.7486 54.7639C84.9736 54.7639 86.8736 54.2639 88.4486 53.2639L87.3236 50.4389C85.9486 51.2889 84.4986 51.7139 82.9486 51.7139C80.6236 51.7139 79.1736 50.8139 78.7736 49.1889H88.9986ZM82.0986 44.4889C83.7736 44.4889 84.9486 45.3389 85.3986 46.7889H78.8236C79.2486 45.3389 80.4236 44.4889 82.0986 44.4889ZM98.6584 54.7639C100.633 54.7639 102.358 54.3139 103.833 53.3889L102.683 50.5139C101.533 51.2639 100.308 51.6639 98.9334 51.6639C96.4334 51.6639 94.9584 50.3389 94.9584 48.1639C94.9584 45.9889 96.4334 44.6139 98.7584 44.6139C100.008 44.6139 101.308 44.9889 102.333 45.6639L103.383 42.8389C102.033 41.9389 100.358 41.5139 98.4834 41.5139C94.0834 41.5139 91.1334 44.0639 91.1334 48.1889C91.1334 52.2389 93.9834 54.7639 98.6584 54.7639ZM106.24 54.4639H109.99V36.7139H106.24V54.4639ZM119.363 41.5139C116.938 41.5139 115.038 41.9889 113.313 43.0389L114.563 45.7389C115.938 44.9389 117.238 44.5639 118.738 44.5639C121.213 44.5639 122.388 45.5639 122.388 47.6889V47.8139C121.188 47.1389 119.413 46.7139 117.713 46.7139C114.563 46.7139 112.763 48.1639 112.763 50.7389C112.763 53.2389 114.488 54.7639 117.288 54.7639C119.438 54.7639 121.288 53.8389 122.388 52.2139V54.4639H126.138V47.4639C126.138 43.3139 124.088 41.5139 119.363 41.5139ZM122.388 50.2139C121.413 51.3389 120.038 51.9639 118.588 51.9639C117.288 51.9639 116.588 51.4639 116.588 50.5889C116.588 49.6639 117.363 49.1639 118.863 49.1639C119.988 49.1639 121.338 49.4389 122.388 49.9139V50.2139ZM131.357 39.8139C132.607 39.8139 133.457 38.9889 133.457 37.8139C133.457 36.6389 132.607 35.8139 131.357 35.8139C130.107 35.8139 129.257 36.6389 129.257 37.8139C129.257 38.9889 130.107 39.8139 131.357 39.8139ZM129.482 54.4639H133.232V41.8139H129.482V54.4639ZM153.505 41.5139C151.58 41.5139 150.03 42.3389 148.855 44.0639C148.28 42.4389 146.955 41.5139 145.03 41.5139C143.205 41.5139 141.755 42.3639 140.63 44.0639V41.8139H136.88V54.4639H140.63V46.3139C141.38 45.1889 142.33 44.6139 143.48 44.6139C144.805 44.6139 145.455 45.3889 145.455 46.9889V54.4639H149.205V46.1139C149.88 45.1889 150.805 44.6139 152.005 44.6139C153.38 44.6139 154.03 45.3639 154.03 46.9889V54.4639H157.78V46.2139C157.78 43.2639 156.305 41.5139 153.505 41.5139ZM177.916 54.7639C180.541 54.7639 182.841 54.1639 184.516 52.9889L183.241 49.8389C181.616 50.8389 179.991 51.3139 178.166 51.3139C174.391 51.3139 172.116 49.3139 172.116 45.9889C172.116 42.6889 174.366 40.6139 178.016 40.6139C179.641 40.6139 181.116 41.0389 182.791 42.0389L183.941 38.8889C182.116 37.7139 180.091 37.1639 177.716 37.1639C171.866 37.1639 168.141 40.5389 168.141 46.0389C168.141 51.4639 171.766 54.7639 177.916 54.7639ZM196.519 41.8139V49.9639C195.644 51.0889 194.519 51.6639 193.194 51.6639C191.644 51.6639 190.869 50.8889 190.869 49.2889V41.8139H187.119V50.0639C187.119 53.0139 188.794 54.7639 191.669 54.7639C193.669 54.7639 195.269 53.9139 196.519 52.2139V54.4639H200.269V41.8139H196.519ZM220.546 41.5139C218.621 41.5139 217.071 42.3389 215.896 44.0639C215.321 42.4389 213.996 41.5139 212.071 41.5139C210.246 41.5139 208.796 42.3639 207.671 44.0639V41.8139H203.921V54.4639H207.671V46.3139C208.421 45.1889 209.371 44.6139 210.521 44.6139C211.846 44.6139 212.496 45.3889 212.496 46.9889V54.4639H216.246V46.1139C216.921 45.1889 217.846 44.6139 219.046 44.6139C220.421 44.6139 221.071 45.3639 221.071 46.9889V54.4639H224.821V46.2139C224.821 43.2639 223.346 41.5139 220.546 41.5139ZM237.437 41.8139V49.9639C236.562 51.0889 235.437 51.6639 234.112 51.6639C232.562 51.6639 231.787 50.8889 231.787 49.2889V41.8139H228.037V50.0639C228.037 53.0139 229.712 54.7639 232.587 54.7639C234.587 54.7639 236.187 53.9139 237.437 52.2139V54.4639H241.187V41.8139H237.437ZM244.839 54.4639H248.589V36.7139H244.839V54.4639ZM257.961 41.5139C255.536 41.5139 253.636 41.9889 251.911 43.0389L253.161 45.7389C254.536 44.9389 255.836 44.5639 257.336 44.5639C259.811 44.5639 260.986 45.5639 260.986 47.6889V47.8139C259.786 47.1389 258.011 46.7139 256.311 46.7139C253.161 46.7139 251.361 48.1639 251.361 50.7389C251.361 53.2389 253.086 54.7639 255.886 54.7639C258.036 54.7639 259.886 53.8389 260.986 52.2139V54.4639H264.736V47.4639C264.736 43.3139 262.686 41.5139 257.961 41.5139ZM260.986 50.2139C260.011 51.3389 258.636 51.9639 257.186 51.9639C255.886 51.9639 255.186 51.4639 255.186 50.5889C255.186 49.6639 255.961 49.1639 257.461 49.1639C258.586 49.1639 259.936 49.4389 260.986 49.9139V50.2139ZM277.681 51.1139C276.931 51.4889 276.181 51.6639 275.406 51.6639C274.106 51.6639 273.581 51.1889 273.581 49.9889V44.6389H278.006V41.8139H273.581V37.4639H269.831V41.8139H266.781V44.6389H269.831V50.7889C269.831 53.4639 271.406 54.7639 274.656 54.7639C276.081 54.7639 277.281 54.5139 278.331 53.9889L277.681 51.1139ZM282.895 39.8139C284.145 39.8139 284.995 38.9889 284.995 37.8139C284.995 36.6389 284.145 35.8139 282.895 35.8139C281.645 35.8139 280.795 36.6389 280.795 37.8139C280.795 38.9889 281.645 39.8139 282.895 39.8139ZM281.02 54.4639H284.77V41.8139H281.02V54.4639ZM297.918 41.8139L294.518 50.4139L291.118 41.8139H287.068L292.493 54.4639H296.368L301.793 41.8139H297.918ZM316.782 49.1889C316.832 48.8139 316.832 48.5139 316.832 48.1389C316.832 44.0889 314.132 41.5139 309.907 41.5139C305.557 41.5139 302.657 44.1639 302.657 48.1389C302.657 52.3139 305.582 54.7639 310.532 54.7639C312.757 54.7639 314.657 54.2639 316.232 53.2639L315.107 50.4389C313.732 51.2889 312.282 51.7139 310.732 51.7139C308.407 51.7139 306.957 50.8139 306.557 49.1889H316.782ZM309.882 44.4889C311.557 44.4889 312.732 45.3389 313.182 46.7889H306.607C307.032 45.3389 308.207 44.4889 309.882 44.4889ZM344.463 54.4639L339.988 47.9139C342.388 47.2639 343.638 45.5389 343.638 42.8389C343.638 39.3389 341.513 37.4639 337.563 37.4639H327.438V54.4639H331.338V48.2139H335.638L339.863 54.4639H344.463ZM331.338 40.8139H337.138C338.863 40.8139 339.663 41.4639 339.663 42.8389C339.663 44.2139 338.863 44.8639 337.138 44.8639H331.338V40.8139ZM360.312 49.1889C360.362 48.8139 360.362 48.5139 360.362 48.1389C360.362 44.0889 357.662 41.5139 353.437 41.5139C349.087 41.5139 346.187 44.1639 346.187 48.1389C346.187 52.3139 349.112 54.7639 354.062 54.7639C356.287 54.7639 358.187 54.2639 359.762 53.2639L358.637 50.4389C357.262 51.2889 355.812 51.7139 354.262 51.7139C351.937 51.7139 350.487 50.8139 350.087 49.1889H360.312ZM353.412 44.4889C355.087 44.4889 356.262 45.3389 356.712 46.7889H350.137C350.562 45.3389 351.737 44.4889 353.412 44.4889ZM372.088 41.8139L368.688 50.4139L365.288 41.8139H361.238L366.663 54.4639H370.538L375.963 41.8139H372.088ZM390.952 49.1889C391.002 48.8139 391.002 48.5139 391.002 48.1389C391.002 44.0889 388.302 41.5139 384.077 41.5139C379.727 41.5139 376.827 44.1639 376.827 48.1389C376.827 52.3139 379.752 54.7639 384.702 54.7639C386.927 54.7639 388.827 54.2639 390.402 53.2639L389.277 50.4389C387.902 51.2889 386.452 51.7139 384.902 51.7139C382.577 51.7139 381.127 50.8139 380.727 49.1889H390.952ZM384.052 44.4889C385.727 44.4889 386.902 45.3389 387.352 46.7889H380.777C381.202 45.3389 382.377 44.4889 384.052 44.4889ZM402.413 41.5139C400.413 41.5139 398.813 42.3639 397.563 44.0639V41.8139H393.813V54.4639H397.563V46.3139C398.438 45.1889 399.563 44.6139 400.888 44.6139C402.438 44.6139 403.213 45.3889 403.213 46.9889V54.4639H406.963V46.2139C406.963 43.2639 405.288 41.5139 402.413 41.5139ZM419.565 41.8139V49.9639C418.69 51.0889 417.565 51.6639 416.24 51.6639C414.69 51.6639 413.915 50.8889 413.915 49.2889V41.8139H410.165V50.0639C410.165 53.0139 411.84 54.7639 414.715 54.7639C416.715 54.7639 418.315 53.9139 419.565 52.2139V54.4639H423.315V41.8139H419.565ZM440.293 49.1889C440.343 48.8139 440.343 48.5139 440.343 48.1389C440.343 44.0889 437.643 41.5139 433.418 41.5139C429.068 41.5139 426.168 44.1639 426.168 48.1389C426.168 52.3139 429.093 54.7639 434.043 54.7639C436.268 54.7639 438.168 54.2639 439.743 53.2639L438.618 50.4389C437.243 51.2889 435.793 51.7139 434.243 51.7139C431.918 51.7139 430.468 50.8139 430.068 49.1889H440.293ZM433.393 44.4889C435.068 44.4889 436.243 45.3389 436.693 46.7889H430.118C430.543 45.3389 431.718 44.4889 433.393 44.4889Z" fill="#131313"/>
<rect x="465" y="24" width="163" height="44" fill="#D3FE8A"/>
<path d="M499.738 49.276C499.738 45.982 497.902 44.659 492.772 44.065V40.393C494.419 40.609 495.958 41.122 497.281 41.959L498.793 38.935C497.092 37.855 495.094 37.18 492.772 36.964V33.697H489.829V36.91C485.428 37.207 482.863 39.178 482.863 42.337C482.863 45.604 484.699 46.927 489.829 47.521V51.274C487.615 51.085 485.509 50.41 483.646 49.222L482.026 52.354C484.213 53.758 486.778 54.541 489.829 54.73V57.916H492.772V54.703C497.335 54.352 499.738 52.516 499.738 49.276ZM487.075 42.148C487.075 41.176 488.02 40.582 489.829 40.366V43.768C487.561 43.471 487.075 43.12 487.075 42.148ZM492.772 51.247V47.818C495.04 48.115 495.526 48.493 495.526 49.438C495.526 50.437 494.608 51.031 492.772 51.247ZM512.059 51.436V36.64H507.901L502.69 39.097V43.039L507.901 40.582V51.436H502.69V55H517.297V51.436H512.059ZM534.238 45.469C536.236 44.794 537.208 43.471 537.208 41.527C537.208 38.152 534.292 36.316 528.838 36.316C525.382 36.316 522.493 37.072 520.117 38.584L521.575 41.878C523.546 40.636 526.03 39.961 528.703 39.961C531.538 39.961 532.996 40.717 532.996 42.148C532.996 43.417 531.997 43.957 529.648 43.957H524.383V47.467H530.296C532.699 47.467 533.725 48.034 533.725 49.33C533.725 50.869 531.997 51.679 528.784 51.679C525.598 51.679 522.952 50.923 520.792 49.411L519.253 52.759C521.44 54.406 524.896 55.324 528.838 55.324C534.751 55.324 537.937 53.38 537.937 49.789C537.937 47.575 536.695 46.144 534.238 45.469ZM543.348 50.572C542.052 50.572 541.08 51.571 541.08 52.867C541.08 54.136 542.025 55.108 543.294 55.135C543.078 56.323 542.133 57.295 540.783 57.646L541.377 59.428C544.077 58.834 545.859 56.512 545.859 53.596C545.859 51.679 544.941 50.572 543.348 50.572ZM559.7 43.309C557.243 43.309 555.164 43.903 553.463 45.064L553.922 40.204H565.748V36.64H550.547L549.548 47.386L552.464 48.169C553.868 47.305 555.947 46.846 558.269 46.846C561.212 46.846 562.616 47.602 562.616 49.168C562.616 50.815 561.023 51.679 557.945 51.679C554.948 51.679 552.167 50.869 550.142 49.411L548.603 52.759C550.682 54.352 554.138 55.324 557.999 55.324C563.696 55.324 566.828 53.191 566.828 49.087C566.828 45.361 564.236 43.309 559.7 43.309ZM580.187 43.309C577.73 43.309 575.651 43.903 573.95 45.064L574.409 40.204H586.235V36.64H571.034L570.035 47.386L572.951 48.169C574.355 47.305 576.434 46.846 578.756 46.846C581.699 46.846 583.103 47.602 583.103 49.168C583.103 50.815 581.51 51.679 578.432 51.679C575.435 51.679 572.654 50.869 570.629 49.411L569.09 52.759C571.169 54.352 574.625 55.324 578.486 55.324C584.183 55.324 587.315 53.191 587.315 49.087C587.315 45.361 584.723 43.309 580.187 43.309ZM600.674 43.309C598.217 43.309 596.138 43.903 594.437 45.064L594.896 40.204H606.722V36.64H591.521L590.522 47.386L593.438 48.169C594.842 47.305 596.921 46.846 599.243 46.846C602.186 46.846 603.59 47.602 603.59 49.168C603.59 50.815 601.997 51.679 598.919 51.679C595.922 51.679 593.141 50.869 591.116 49.411L589.577 52.759C591.656 54.352 595.112 55.324 598.973 55.324C604.67 55.324 607.802 53.191 607.802 49.087C607.802 45.361 605.21 43.309 600.674 43.309Z" fill="#131313"/>
<path d="M97.625 288.179C96.6619 288.179 95.8416 287.917 95.1641 287.393C94.4865 286.864 93.9688 286.099 93.6108 285.098C93.2528 284.092 93.0739 282.878 93.0739 281.455C93.0739 280.04 93.2528 278.832 93.6108 277.83C93.973 276.825 94.4929 276.058 95.1705 275.529C95.8523 274.996 96.6705 274.73 97.625 274.73C98.5795 274.73 99.3956 274.996 100.073 275.529C100.755 276.058 101.275 276.825 101.633 277.83C101.995 278.832 102.176 280.04 102.176 281.455C102.176 282.878 101.997 284.092 101.639 285.098C101.281 286.099 100.763 286.864 100.086 287.393C99.4084 287.917 98.5881 288.179 97.625 288.179ZM97.625 286.773C98.5795 286.773 99.321 286.312 99.8494 285.392C100.378 284.472 100.642 283.159 100.642 281.455C100.642 280.321 100.521 279.356 100.278 278.559C100.039 277.762 99.6939 277.155 99.2422 276.737C98.7947 276.32 98.2557 276.111 97.625 276.111C96.679 276.111 95.9396 276.577 95.407 277.511C94.8743 278.44 94.608 279.754 94.608 281.455C94.608 282.588 94.7273 283.551 94.9659 284.344C95.2045 285.136 95.5476 285.739 95.995 286.153C96.4467 286.566 96.9901 286.773 97.625 286.773ZM109.207 274.909V288H107.622V276.571H107.545L104.349 278.693V277.082L107.622 274.909H109.207ZM117.626 274.295L113.407 289.969H112.026L116.245 274.295H117.626ZM123.658 288.179C122.695 288.179 121.875 287.917 121.197 287.393C120.52 286.864 120.002 286.099 119.644 285.098C119.286 284.092 119.107 282.878 119.107 281.455C119.107 280.04 119.286 278.832 119.644 277.83C120.006 276.825 120.526 276.058 121.204 275.529C121.885 274.996 122.704 274.73 123.658 274.73C124.613 274.73 125.429 274.996 126.106 275.529C126.788 276.058 127.308 276.825 127.666 277.83C128.028 278.832 128.209 280.04 128.209 281.455C128.209 282.878 128.03 284.092 127.672 285.098C127.314 286.099 126.797 286.864 126.119 287.393C125.442 287.917 124.621 288.179 123.658 288.179ZM123.658 286.773C124.613 286.773 125.354 286.312 125.883 285.392C126.411 284.472 126.675 283.159 126.675 281.455C126.675 280.321 126.554 279.356 126.311 278.559C126.072 277.762 125.727 277.155 125.275 276.737C124.828 276.32 124.289 276.111 123.658 276.111C122.712 276.111 121.973 276.577 121.44 277.511C120.907 278.44 120.641 279.754 120.641 281.455C120.641 282.588 120.76 283.551 120.999 284.344C121.238 285.136 121.581 285.739 122.028 286.153C122.48 286.566 123.023 286.773 123.658 286.773ZM130.638 288V286.849L134.959 282.119C135.466 281.565 135.884 281.084 136.212 280.675C136.54 280.261 136.783 279.874 136.941 279.511C137.103 279.145 137.184 278.761 137.184 278.361C137.184 277.901 137.073 277.502 136.851 277.165C136.634 276.829 136.336 276.569 135.956 276.386C135.577 276.202 135.151 276.111 134.678 276.111C134.175 276.111 133.736 276.215 133.361 276.424C132.991 276.629 132.703 276.916 132.498 277.287C132.298 277.658 132.198 278.092 132.198 278.591H130.689C130.689 277.824 130.866 277.151 131.22 276.571C131.574 275.991 132.055 275.54 132.665 275.216C133.278 274.892 133.966 274.73 134.729 274.73C135.496 274.73 136.176 274.892 136.768 275.216C137.361 275.54 137.825 275.977 138.162 276.526C138.498 277.076 138.667 277.688 138.667 278.361C138.667 278.842 138.579 279.313 138.405 279.773C138.234 280.229 137.936 280.739 137.51 281.301C137.088 281.859 136.502 282.541 135.752 283.347L132.812 286.491V286.594H138.897V288H130.638ZM146.19 274.295L141.971 289.969H140.591L144.809 274.295H146.19ZM147.953 288V286.849L152.274 282.119C152.781 281.565 153.199 281.084 153.527 280.675C153.855 280.261 154.098 279.874 154.255 279.511C154.417 279.145 154.498 278.761 154.498 278.361C154.498 277.901 154.387 277.502 154.166 277.165C153.949 276.829 153.65 276.569 153.271 276.386C152.892 276.202 152.466 276.111 151.993 276.111C151.49 276.111 151.051 276.215 150.676 276.424C150.305 276.629 150.017 276.916 149.813 277.287C149.613 277.658 149.512 278.092 149.512 278.591H148.004C148.004 277.824 148.181 277.151 148.534 276.571C148.888 275.991 149.37 275.54 149.979 275.216C150.593 274.892 151.281 274.73 152.044 274.73C152.811 274.73 153.49 274.892 154.083 275.216C154.675 275.54 155.14 275.977 155.476 276.526C155.813 277.076 155.981 277.688 155.981 278.361C155.981 278.842 155.894 279.313 155.719 279.773C155.549 280.229 155.25 280.739 154.824 281.301C154.402 281.859 153.816 282.541 153.066 283.347L150.126 286.491V286.594H156.211V288H147.953ZM163.275 288.179C162.431 288.179 161.679 288.034 161.018 287.744C160.362 287.455 159.84 287.052 159.452 286.536C159.069 286.016 158.86 285.413 158.826 284.727H160.436C160.471 285.149 160.615 285.513 160.871 285.82C161.127 286.123 161.461 286.357 161.875 286.523C162.288 286.69 162.746 286.773 163.249 286.773C163.811 286.773 164.31 286.675 164.745 286.479C165.179 286.283 165.52 286.01 165.767 285.661C166.015 285.311 166.138 284.906 166.138 284.446C166.138 283.964 166.019 283.54 165.78 283.174C165.542 282.803 165.192 282.513 164.732 282.305C164.272 282.096 163.709 281.991 163.044 281.991H161.996V280.585H163.044C163.564 280.585 164.02 280.491 164.412 280.304C164.809 280.116 165.118 279.852 165.339 279.511C165.565 279.17 165.678 278.77 165.678 278.31C165.678 277.866 165.58 277.481 165.384 277.153C165.188 276.825 164.911 276.569 164.553 276.386C164.199 276.202 163.782 276.111 163.3 276.111C162.848 276.111 162.422 276.194 162.022 276.36C161.625 276.522 161.301 276.759 161.05 277.07C160.799 277.376 160.662 277.747 160.641 278.182H159.107C159.132 277.496 159.339 276.895 159.727 276.379C160.115 275.859 160.622 275.455 161.248 275.165C161.879 274.875 162.571 274.73 163.326 274.73C164.135 274.73 164.83 274.894 165.409 275.222C165.989 275.546 166.434 275.974 166.745 276.507C167.056 277.04 167.212 277.615 167.212 278.233C167.212 278.97 167.018 279.599 166.63 280.119C166.247 280.638 165.725 280.999 165.064 281.199V281.301C165.891 281.437 166.537 281.789 167.001 282.356C167.466 282.918 167.698 283.615 167.698 284.446C167.698 285.158 167.504 285.797 167.116 286.364C166.733 286.926 166.208 287.369 165.544 287.693C164.879 288.017 164.123 288.179 163.275 288.179Z" fill="#131313"/>
<path d="M252.513 288.179C251.55 288.179 250.73 287.917 250.052 287.393C249.375 286.864 248.857 286.099 248.499 285.098C248.141 284.092 247.962 282.878 247.962 281.455C247.962 280.04 248.141 278.832 248.499 277.83C248.861 276.825 249.381 276.058 250.059 275.529C250.74 274.996 251.559 274.73 252.513 274.73C253.468 274.73 254.284 274.996 254.961 275.529C255.643 276.058 256.163 276.825 256.521 277.83C256.883 278.832 257.064 280.04 257.064 281.455C257.064 282.878 256.885 284.092 256.527 285.098C256.169 286.099 255.652 286.864 254.974 287.393C254.296 287.917 253.476 288.179 252.513 288.179ZM252.513 286.773C253.468 286.773 254.209 286.312 254.737 285.392C255.266 284.472 255.53 283.159 255.53 281.455C255.53 280.321 255.409 279.356 255.166 278.559C254.927 277.762 254.582 277.155 254.13 276.737C253.683 276.32 253.144 276.111 252.513 276.111C251.567 276.111 250.828 276.577 250.295 277.511C249.762 278.44 249.496 279.754 249.496 281.455C249.496 282.588 249.615 283.551 249.854 284.344C250.093 285.136 250.436 285.739 250.883 286.153C251.335 286.566 251.878 286.773 252.513 286.773ZM259.493 288V286.849L263.814 282.119C264.321 281.565 264.739 281.084 265.067 280.675C265.395 280.261 265.638 279.874 265.796 279.511C265.958 279.145 266.039 278.761 266.039 278.361C266.039 277.901 265.928 277.502 265.706 277.165C265.489 276.829 265.191 276.569 264.811 276.386C264.432 276.202 264.006 276.111 263.533 276.111C263.03 276.111 262.591 276.215 262.216 276.424C261.845 276.629 261.558 276.916 261.353 277.287C261.153 277.658 261.053 278.092 261.053 278.591H259.544C259.544 277.824 259.721 277.151 260.075 276.571C260.429 275.991 260.91 275.54 261.519 275.216C262.133 274.892 262.821 274.73 263.584 274.73C264.351 274.73 265.031 274.892 265.623 275.216C266.215 275.54 266.68 275.977 267.017 276.526C267.353 277.076 267.522 277.688 267.522 278.361C267.522 278.842 267.434 279.313 267.26 279.773C267.089 280.229 266.791 280.739 266.365 281.301C265.943 281.859 265.357 282.541 264.607 283.347L261.666 286.491V286.594H267.752V288H259.493ZM275.045 274.295L270.826 289.969H269.446L273.664 274.295H275.045ZM281.078 288.179C280.114 288.179 279.294 287.917 278.617 287.393C277.939 286.864 277.421 286.099 277.063 285.098C276.705 284.092 276.526 282.878 276.526 281.455C276.526 280.04 276.705 278.832 277.063 277.83C277.426 276.825 277.945 276.058 278.623 275.529C279.305 274.996 280.123 274.73 281.078 274.73C282.032 274.73 282.848 274.996 283.526 275.529C284.207 276.058 284.727 276.825 285.085 277.83C285.448 278.832 285.629 280.04 285.629 281.455C285.629 282.878 285.45 284.092 285.092 285.098C284.734 286.099 284.216 286.864 283.538 287.393C282.861 287.917 282.041 288.179 281.078 288.179ZM281.078 286.773C282.032 286.773 282.774 286.312 283.302 285.392C283.83 284.472 284.095 283.159 284.095 281.455C284.095 280.321 283.973 279.356 283.73 278.559C283.492 277.762 283.146 277.155 282.695 276.737C282.247 276.32 281.708 276.111 281.078 276.111C280.131 276.111 279.392 276.577 278.859 277.511C278.327 278.44 278.06 279.754 278.06 281.455C278.06 282.588 278.18 283.551 278.418 284.344C278.657 285.136 279 285.739 279.448 286.153C279.899 286.566 280.443 286.773 281.078 286.773ZM288.058 288V286.849L292.379 282.119C292.886 281.565 293.303 281.084 293.631 280.675C293.96 280.261 294.203 279.874 294.36 279.511C294.522 279.145 294.603 278.761 294.603 278.361C294.603 277.901 294.492 277.502 294.271 277.165C294.053 276.829 293.755 276.569 293.376 276.386C292.997 276.202 292.57 276.111 292.097 276.111C291.595 276.111 291.156 276.215 290.781 276.424C290.41 276.629 290.122 276.916 289.918 277.287C289.717 277.658 289.617 278.092 289.617 278.591H288.109C288.109 277.824 288.286 277.151 288.639 276.571C288.993 275.991 289.475 275.54 290.084 275.216C290.698 274.892 291.386 274.73 292.149 274.73C292.916 274.73 293.595 274.892 294.188 275.216C294.78 275.54 295.244 275.977 295.581 276.526C295.918 277.076 296.086 277.688 296.086 278.361C296.086 278.842 295.999 279.313 295.824 279.773C295.654 280.229 295.355 280.739 294.929 281.301C294.507 281.859 293.921 282.541 293.171 283.347L290.231 286.491V286.594H296.316V288H288.058ZM303.609 274.295L299.391 289.969H298.01L302.229 274.295H303.609ZM305.372 288V286.849L309.693 282.119C310.2 281.565 310.618 281.084 310.946 280.675C311.274 280.261 311.517 279.874 311.675 279.511C311.837 279.145 311.918 278.761 311.918 278.361C311.918 277.901 311.807 277.502 311.585 277.165C311.368 276.829 311.07 276.569 310.69 276.386C310.311 276.202 309.885 276.111 309.412 276.111C308.909 276.111 308.47 276.215 308.095 276.424C307.724 276.629 307.437 276.916 307.232 277.287C307.032 277.658 306.932 278.092 306.932 278.591H305.423C305.423 277.824 305.6 277.151 305.954 276.571C306.307 275.991 306.789 275.54 307.398 275.216C308.012 274.892 308.7 274.73 309.463 274.73C310.23 274.73 310.91 274.892 311.502 275.216C312.094 275.54 312.559 275.977 312.896 276.526C313.232 277.076 313.4 277.688 313.4 278.361C313.4 278.842 313.313 279.313 313.138 279.773C312.968 280.229 312.67 280.739 312.244 281.301C311.822 281.859 311.236 282.541 310.486 283.347L307.545 286.491V286.594H313.631V288H305.372ZM320.694 288.179C319.85 288.179 319.098 288.034 318.437 287.744C317.781 287.455 317.259 287.052 316.871 286.536C316.488 286.016 316.279 285.413 316.245 284.727H317.856C317.89 285.149 318.035 285.513 318.29 285.82C318.546 286.123 318.881 286.357 319.294 286.523C319.707 286.69 320.165 286.773 320.668 286.773C321.231 286.773 321.729 286.675 322.164 286.479C322.599 286.283 322.94 286.01 323.187 285.661C323.434 285.311 323.557 284.906 323.557 284.446C323.557 283.964 323.438 283.54 323.199 283.174C322.961 282.803 322.611 282.513 322.151 282.305C321.691 282.096 321.128 281.991 320.464 281.991H319.415V280.585H320.464C320.984 280.585 321.44 280.491 321.832 280.304C322.228 280.116 322.537 279.852 322.758 279.511C322.984 279.17 323.097 278.77 323.097 278.31C323.097 277.866 322.999 277.481 322.803 277.153C322.607 276.825 322.33 276.569 321.972 276.386C321.619 276.202 321.201 276.111 320.719 276.111C320.268 276.111 319.842 276.194 319.441 276.36C319.045 276.522 318.721 276.759 318.469 277.07C318.218 277.376 318.082 277.747 318.06 278.182H316.526C316.552 277.496 316.758 276.895 317.146 276.379C317.534 275.859 318.041 275.455 318.668 275.165C319.298 274.875 319.991 274.73 320.745 274.73C321.555 274.73 322.249 274.894 322.829 275.222C323.408 275.546 323.854 275.974 324.165 276.507C324.476 277.04 324.631 277.615 324.631 278.233C324.631 278.97 324.437 279.599 324.05 280.119C323.666 280.638 323.144 280.999 322.484 281.199V281.301C323.31 281.437 323.956 281.789 324.42 282.356C324.885 282.918 325.117 283.615 325.117 284.446C325.117 285.158 324.923 285.797 324.535 286.364C324.152 286.926 323.628 287.369 322.963 287.693C322.298 288.017 321.542 288.179 320.694 288.179Z" fill="#131313"/>
<path d="M441.349 288.179C440.386 288.179 439.566 287.917 438.888 287.393C438.211 286.864 437.693 286.099 437.335 285.098C436.977 284.092 436.798 282.878 436.798 281.455C436.798 280.04 436.977 278.832 437.335 277.83C437.697 276.825 438.217 276.058 438.895 275.529C439.577 274.996 440.395 274.73 441.349 274.73C442.304 274.73 443.12 274.996 443.797 275.529C444.479 276.058 444.999 276.825 445.357 277.83C445.719 278.832 445.9 280.04 445.9 281.455C445.9 282.878 445.721 284.092 445.363 285.098C445.005 286.099 444.488 286.864 443.81 287.393C443.133 287.917 442.312 288.179 441.349 288.179ZM441.349 286.773C442.304 286.773 443.045 286.312 443.574 285.392C444.102 284.472 444.366 283.159 444.366 281.455C444.366 280.321 444.245 279.356 444.002 278.559C443.763 277.762 443.418 277.155 442.966 276.737C442.519 276.32 441.98 276.111 441.349 276.111C440.403 276.111 439.664 276.577 439.131 277.511C438.599 278.44 438.332 279.754 438.332 281.455C438.332 282.588 438.452 283.551 438.69 284.344C438.929 285.136 439.272 285.739 439.719 286.153C440.171 286.566 440.714 286.773 441.349 286.773ZM452.753 288.179C451.909 288.179 451.157 288.034 450.496 287.744C449.84 287.455 449.318 287.052 448.93 286.536C448.547 286.016 448.338 285.413 448.304 284.727H449.915C449.949 285.149 450.094 285.513 450.349 285.82C450.605 286.123 450.939 286.357 451.353 286.523C451.766 286.69 452.224 286.773 452.727 286.773C453.29 286.773 453.788 286.675 454.223 286.479C454.657 286.283 454.998 286.01 455.246 285.661C455.493 285.311 455.616 284.906 455.616 284.446C455.616 283.964 455.497 283.54 455.258 283.174C455.02 282.803 454.67 282.513 454.21 282.305C453.75 282.096 453.187 281.991 452.523 281.991H451.474V280.585H452.523C453.042 280.585 453.498 280.491 453.89 280.304C454.287 280.116 454.596 279.852 454.817 279.511C455.043 279.17 455.156 278.77 455.156 278.31C455.156 277.866 455.058 277.481 454.862 277.153C454.666 276.825 454.389 276.569 454.031 276.386C453.677 276.202 453.26 276.111 452.778 276.111C452.327 276.111 451.9 276.194 451.5 276.36C451.104 276.522 450.78 276.759 450.528 277.07C450.277 277.376 450.14 277.747 450.119 278.182H448.585C448.611 277.496 448.817 276.895 449.205 276.379C449.593 275.859 450.1 275.455 450.726 275.165C451.357 274.875 452.05 274.73 452.804 274.73C453.613 274.73 454.308 274.894 454.888 275.222C455.467 275.546 455.912 275.974 456.224 276.507C456.535 277.04 456.69 277.615 456.69 278.233C456.69 278.97 456.496 279.599 456.108 280.119C455.725 280.638 455.203 280.999 454.542 281.199V281.301C455.369 281.437 456.015 281.789 456.479 282.356C456.944 282.918 457.176 283.615 457.176 284.446C457.176 285.158 456.982 285.797 456.594 286.364C456.211 286.926 455.687 287.369 455.022 287.693C454.357 288.017 453.601 288.179 452.753 288.179ZM464.444 274.295L460.225 289.969H458.844L463.063 274.295H464.444ZM470.476 288.179C469.513 288.179 468.693 287.917 468.015 287.393C467.338 286.864 466.82 286.099 466.462 285.098C466.104 284.092 465.925 282.878 465.925 281.455C465.925 280.04 466.104 278.832 466.462 277.83C466.824 276.825 467.344 276.058 468.022 275.529C468.703 274.996 469.522 274.73 470.476 274.73C471.431 274.73 472.247 274.996 472.924 275.529C473.606 276.058 474.126 276.825 474.484 277.83C474.846 278.832 475.027 280.04 475.027 281.455C475.027 282.878 474.848 284.092 474.49 285.098C474.132 286.099 473.615 286.864 472.937 287.393C472.26 287.917 471.439 288.179 470.476 288.179ZM470.476 286.773C471.431 286.773 472.172 286.312 472.701 285.392C473.229 284.472 473.493 283.159 473.493 281.455C473.493 280.321 473.372 279.356 473.129 278.559C472.89 277.762 472.545 277.155 472.093 276.737C471.646 276.32 471.107 276.111 470.476 276.111C469.53 276.111 468.791 276.577 468.258 277.511C467.725 278.44 467.459 279.754 467.459 281.455C467.459 282.588 467.578 283.551 467.817 284.344C468.056 285.136 468.399 285.739 468.846 286.153C469.298 286.566 469.841 286.773 470.476 286.773ZM477.456 288V286.849L481.777 282.119C482.284 281.565 482.702 281.084 483.03 280.675C483.358 280.261 483.601 279.874 483.759 279.511C483.921 279.145 484.002 278.761 484.002 278.361C484.002 277.901 483.891 277.502 483.669 277.165C483.452 276.829 483.154 276.569 482.774 276.386C482.395 276.202 481.969 276.111 481.496 276.111C480.993 276.111 480.554 276.215 480.179 276.424C479.809 276.629 479.521 276.916 479.316 277.287C479.116 277.658 479.016 278.092 479.016 278.591H477.507C477.507 277.824 477.684 277.151 478.038 276.571C478.392 275.991 478.873 275.54 479.483 275.216C480.096 274.892 480.784 274.73 481.547 274.73C482.314 274.73 482.994 274.892 483.586 275.216C484.179 275.54 484.643 275.977 484.98 276.526C485.316 277.076 485.485 277.688 485.485 278.361C485.485 278.842 485.397 279.313 485.223 279.773C485.052 280.229 484.754 280.739 484.328 281.301C483.906 281.859 483.32 282.541 482.57 283.347L479.63 286.491V286.594H485.715V288H477.456ZM493.008 274.295L488.789 289.969H487.409L491.627 274.295H493.008ZM494.771 288V286.849L499.092 282.119C499.599 281.565 500.017 281.084 500.345 280.675C500.673 280.261 500.916 279.874 501.073 279.511C501.235 279.145 501.316 278.761 501.316 278.361C501.316 277.901 501.205 277.502 500.984 277.165C500.767 276.829 500.468 276.569 500.089 276.386C499.71 276.202 499.284 276.111 498.811 276.111C498.308 276.111 497.869 276.215 497.494 276.424C497.123 276.629 496.835 276.916 496.631 277.287C496.431 277.658 496.33 278.092 496.33 278.591H494.822C494.822 277.824 494.999 277.151 495.352 276.571C495.706 275.991 496.188 275.54 496.797 275.216C497.411 274.892 498.099 274.73 498.862 274.73C499.629 274.73 500.308 274.892 500.901 275.216C501.493 275.54 501.958 275.977 502.294 276.526C502.631 277.076 502.799 277.688 502.799 278.361C502.799 278.842 502.712 279.313 502.537 279.773C502.367 280.229 502.068 280.739 501.642 281.301C501.22 281.859 500.634 282.541 499.884 283.347L496.944 286.491V286.594H503.029V288H494.771ZM510.092 288.179C509.249 288.179 508.497 288.034 507.836 287.744C507.18 287.455 506.658 287.052 506.27 286.536C505.887 286.016 505.678 285.413 505.644 284.727H507.254C507.289 285.149 507.433 285.513 507.689 285.82C507.945 286.123 508.279 286.357 508.693 286.523C509.106 286.69 509.564 286.773 510.067 286.773C510.629 286.773 511.128 286.675 511.563 286.479C511.997 286.283 512.338 286.01 512.585 285.661C512.833 285.311 512.956 284.906 512.956 284.446C512.956 283.964 512.837 283.54 512.598 283.174C512.36 282.803 512.01 282.513 511.55 282.305C511.09 282.096 510.527 281.991 509.862 281.991H508.814V280.585H509.862C510.382 280.585 510.838 280.491 511.23 280.304C511.627 280.116 511.936 279.852 512.157 279.511C512.383 279.17 512.496 278.77 512.496 278.31C512.496 277.866 512.398 277.481 512.202 277.153C512.006 276.825 511.729 276.569 511.371 276.386C511.017 276.202 510.6 276.111 510.118 276.111C509.666 276.111 509.24 276.194 508.84 276.36C508.443 276.522 508.119 276.759 507.868 277.07C507.617 277.376 507.48 277.747 507.459 278.182H505.925C505.95 277.496 506.157 276.895 506.545 276.379C506.933 275.859 507.44 275.455 508.066 275.165C508.697 274.875 509.389 274.73 510.144 274.73C510.953 274.73 511.648 274.894 512.227 275.222C512.807 275.546 513.252 275.974 513.563 276.507C513.874 277.04 514.03 277.615 514.03 278.233C514.03 278.97 513.836 279.599 513.448 280.119C513.065 280.638 512.543 280.999 511.882 281.199V281.301C512.709 281.437 513.355 281.789 513.819 282.356C514.284 282.918 514.516 283.615 514.516 284.446C514.516 285.158 514.322 285.797 513.934 286.364C513.551 286.926 513.026 287.369 512.362 287.693C511.697 288.017 510.941 288.179 510.092 288.179Z" fill="#131313"/>
<path d="M635.49 288.179C634.527 288.179 633.706 287.917 633.029 287.393C632.351 286.864 631.833 286.099 631.476 285.098C631.118 284.092 630.939 282.878 630.939 281.455C630.939 280.04 631.118 278.832 631.476 277.83C631.838 276.825 632.358 276.058 633.035 275.529C633.717 274.996 634.535 274.73 635.49 274.73C636.444 274.73 637.26 274.996 637.938 275.529C638.62 276.058 639.14 276.825 639.498 277.83C639.86 278.832 640.041 280.04 640.041 281.455C640.041 282.878 639.862 284.092 639.504 285.098C639.146 286.099 638.628 286.864 637.951 287.393C637.273 287.917 636.453 288.179 635.49 288.179ZM635.49 286.773C636.444 286.773 637.186 286.312 637.714 285.392C638.243 284.472 638.507 283.159 638.507 281.455C638.507 280.321 638.385 279.356 638.142 278.559C637.904 277.762 637.559 277.155 637.107 276.737C636.659 276.32 636.12 276.111 635.49 276.111C634.544 276.111 633.804 276.577 633.272 277.511C632.739 278.44 632.473 279.754 632.473 281.455C632.473 282.588 632.592 283.551 632.831 284.344C633.069 285.136 633.412 285.739 633.86 286.153C634.311 286.566 634.855 286.773 635.49 286.773ZM642.163 285.315V284.011L647.916 274.909H648.862V276.929H648.223L643.876 283.807V283.909H651.623V285.315H642.163ZM648.325 288V284.919V284.312V274.909H649.833V288H648.325ZM658.672 274.295L654.453 289.969H653.073L657.291 274.295H658.672ZM664.705 288.179C663.742 288.179 662.921 287.917 662.244 287.393C661.566 286.864 661.048 286.099 660.69 285.098C660.332 284.092 660.153 282.878 660.153 281.455C660.153 280.04 660.332 278.832 660.69 277.83C661.053 276.825 661.572 276.058 662.25 275.529C662.932 274.996 663.75 274.73 664.705 274.73C665.659 274.73 666.475 274.996 667.153 275.529C667.835 276.058 668.354 276.825 668.712 277.83C669.075 278.832 669.256 280.04 669.256 281.455C669.256 282.878 669.077 284.092 668.719 285.098C668.361 286.099 667.843 286.864 667.166 287.393C666.488 287.917 665.668 288.179 664.705 288.179ZM664.705 286.773C665.659 286.773 666.401 286.312 666.929 285.392C667.457 284.472 667.722 283.159 667.722 281.455C667.722 280.321 667.6 279.356 667.357 278.559C667.119 277.762 666.773 277.155 666.322 276.737C665.874 276.32 665.335 276.111 664.705 276.111C663.759 276.111 663.019 276.577 662.487 277.511C661.954 278.44 661.688 279.754 661.688 281.455C661.688 282.588 661.807 283.551 662.045 284.344C662.284 285.136 662.627 285.739 663.075 286.153C663.526 286.566 664.07 286.773 664.705 286.773ZM671.685 288V286.849L676.006 282.119C676.513 281.565 676.93 281.084 677.259 280.675C677.587 280.261 677.83 279.874 677.987 279.511C678.149 279.145 678.23 278.761 678.23 278.361C678.23 277.901 678.119 277.502 677.898 277.165C677.68 276.829 677.382 276.569 677.003 276.386C676.624 276.202 676.197 276.111 675.724 276.111C675.222 276.111 674.783 276.215 674.408 276.424C674.037 276.629 673.749 276.916 673.545 277.287C673.345 277.658 673.244 278.092 673.244 278.591H671.736C671.736 277.824 671.913 277.151 672.266 276.571C672.62 275.991 673.102 275.54 673.711 275.216C674.325 274.892 675.013 274.73 675.776 274.73C676.543 274.73 677.222 274.892 677.815 275.216C678.407 275.54 678.871 275.977 679.208 276.526C679.545 277.076 679.713 277.688 679.713 278.361C679.713 278.842 679.626 279.313 679.451 279.773C679.281 280.229 678.982 280.739 678.556 281.301C678.134 281.859 677.548 282.541 676.798 283.347L673.858 286.491V286.594H679.943V288H671.685ZM687.237 274.295L683.018 289.969H681.637L685.856 274.295H687.237ZM688.999 288V286.849L693.32 282.119C693.827 281.565 694.245 281.084 694.573 280.675C694.901 280.261 695.144 279.874 695.302 279.511C695.464 279.145 695.545 278.761 695.545 278.361C695.545 277.901 695.434 277.502 695.212 277.165C694.995 276.829 694.697 276.569 694.317 276.386C693.938 276.202 693.512 276.111 693.039 276.111C692.536 276.111 692.097 276.215 691.722 276.424C691.351 276.629 691.064 276.916 690.859 277.287C690.659 277.658 690.559 278.092 690.559 278.591H689.05C689.05 277.824 689.227 277.151 689.581 276.571C689.935 275.991 690.416 275.54 691.025 275.216C691.639 274.892 692.327 274.73 693.09 274.73C693.857 274.73 694.537 274.892 695.129 275.216C695.721 275.54 696.186 275.977 696.523 276.526C696.859 277.076 697.028 277.688 697.028 278.361C697.028 278.842 696.94 279.313 696.765 279.773C696.595 280.229 696.297 280.739 695.871 281.301C695.449 281.859 694.863 282.541 694.113 283.347L691.172 286.491V286.594H697.258V288H688.999ZM704.321 288.179C703.477 288.179 702.725 288.034 702.064 287.744C701.408 287.455 700.886 287.052 700.498 286.536C700.115 286.016 699.906 285.413 699.872 284.727H701.483C701.517 285.149 701.662 285.513 701.917 285.82C702.173 286.123 702.508 286.357 702.921 286.523C703.334 286.69 703.792 286.773 704.295 286.773C704.858 286.773 705.356 286.675 705.791 286.479C706.226 286.283 706.567 286.01 706.814 285.661C707.061 285.311 707.185 284.906 707.185 284.446C707.185 283.964 707.065 283.54 706.827 283.174C706.588 282.803 706.239 282.513 705.778 282.305C705.318 282.096 704.756 281.991 704.091 281.991H703.042V280.585H704.091C704.611 280.585 705.067 280.491 705.459 280.304C705.855 280.116 706.164 279.852 706.386 279.511C706.611 279.17 706.724 278.77 706.724 278.31C706.724 277.866 706.626 277.481 706.43 277.153C706.234 276.825 705.957 276.569 705.599 276.386C705.246 276.202 704.828 276.111 704.346 276.111C703.895 276.111 703.469 276.194 703.068 276.36C702.672 276.522 702.348 276.759 702.096 277.07C701.845 277.376 701.709 277.747 701.687 278.182H700.153C700.179 277.496 700.386 276.895 700.773 276.379C701.161 275.859 701.668 275.455 702.295 275.165C702.925 274.875 703.618 274.73 704.372 274.73C705.182 274.73 705.876 274.894 706.456 275.222C707.035 275.546 707.481 275.974 707.792 276.507C708.103 277.04 708.258 277.615 708.258 278.233C708.258 278.97 708.064 279.599 707.677 280.119C707.293 280.638 706.771 280.999 706.111 281.199V281.301C706.937 281.437 707.583 281.789 708.047 282.356C708.512 282.918 708.744 283.615 708.744 284.446C708.744 285.158 708.55 285.797 708.163 286.364C707.779 286.926 707.255 287.369 706.59 287.693C705.925 288.017 705.169 288.179 704.321 288.179Z" fill="#131313"/>
<path d="M830.173 288.179C829.21 288.179 828.39 287.917 827.712 287.393C827.035 286.864 826.517 286.099 826.159 285.098C825.801 284.092 825.622 282.878 825.622 281.455C825.622 280.04 825.801 278.832 826.159 277.83C826.521 276.825 827.041 276.058 827.719 275.529C828.4 274.996 829.219 274.73 830.173 274.73C831.128 274.73 831.944 274.996 832.621 275.529C833.303 276.058 833.823 276.825 834.181 277.83C834.543 278.832 834.724 280.04 834.724 281.455C834.724 282.878 834.545 284.092 834.187 285.098C833.829 286.099 833.312 286.864 832.634 287.393C831.957 287.917 831.136 288.179 830.173 288.179ZM830.173 286.773C831.128 286.773 831.869 286.312 832.398 285.392C832.926 284.472 833.19 283.159 833.19 281.455C833.19 280.321 833.069 279.356 832.826 278.559C832.587 277.762 832.242 277.155 831.79 276.737C831.343 276.32 830.804 276.111 830.173 276.111C829.227 276.111 828.488 276.577 827.955 277.511C827.423 278.44 827.156 279.754 827.156 281.455C827.156 282.588 827.275 283.551 827.514 284.344C827.753 285.136 828.096 285.739 828.543 286.153C828.995 286.566 829.538 286.773 830.173 286.773ZM841.244 288.179C840.494 288.179 839.819 288.03 839.218 287.732C838.617 287.433 838.136 287.024 837.773 286.504C837.411 285.984 837.213 285.392 837.179 284.727H838.713C838.773 285.32 839.041 285.81 839.518 286.197C840 286.581 840.575 286.773 841.244 286.773C841.781 286.773 842.258 286.647 842.676 286.396C843.098 286.144 843.428 285.799 843.667 285.36C843.91 284.917 844.031 284.416 844.031 283.858C844.031 283.287 843.905 282.778 843.654 282.33C843.407 281.879 843.066 281.523 842.631 281.263C842.197 281.003 841.7 280.871 841.142 280.866C840.741 280.862 840.33 280.924 839.908 281.052C839.486 281.175 839.139 281.335 838.866 281.531L837.383 281.352L838.176 274.909H844.977V276.315H839.506L839.045 280.176H839.122C839.391 279.963 839.727 279.786 840.132 279.646C840.537 279.505 840.959 279.435 841.398 279.435C842.199 279.435 842.913 279.626 843.539 280.01C844.17 280.389 844.664 280.909 845.022 281.57C845.384 282.23 845.565 282.984 845.565 283.832C845.565 284.668 845.378 285.413 845.003 286.07C844.632 286.722 844.121 287.237 843.469 287.616C842.817 287.991 842.075 288.179 841.244 288.179ZM852.758 274.295L848.539 289.969H847.158L851.377 274.295H852.758ZM858.79 288.179C857.827 288.179 857.007 287.917 856.329 287.393C855.652 286.864 855.134 286.099 854.776 285.098C854.418 284.092 854.239 282.878 854.239 281.455C854.239 280.04 854.418 278.832 854.776 277.83C855.138 276.825 855.658 276.058 856.336 275.529C857.018 274.996 857.836 274.73 858.79 274.73C859.745 274.73 860.561 274.996 861.239 275.529C861.92 276.058 862.44 276.825 862.798 277.83C863.16 278.832 863.342 280.04 863.342 281.455C863.342 282.878 863.163 284.092 862.805 285.098C862.447 286.099 861.929 286.864 861.251 287.393C860.574 287.917 859.753 288.179 858.79 288.179ZM858.79 286.773C859.745 286.773 860.486 286.312 861.015 285.392C861.543 284.472 861.807 283.159 861.807 281.455C861.807 280.321 861.686 279.356 861.443 278.559C861.204 277.762 860.859 277.155 860.408 276.737C859.96 276.32 859.421 276.111 858.79 276.111C857.844 276.111 857.105 276.577 856.572 277.511C856.04 278.44 855.773 279.754 855.773 281.455C855.773 282.588 855.893 283.551 856.131 284.344C856.37 285.136 856.713 285.739 857.16 286.153C857.612 286.566 858.155 286.773 858.79 286.773ZM865.771 288V286.849L870.092 282.119C870.599 281.565 871.016 281.084 871.344 280.675C871.673 280.261 871.915 279.874 872.073 279.511C872.235 279.145 872.316 278.761 872.316 278.361C872.316 277.901 872.205 277.502 871.984 277.165C871.766 276.829 871.468 276.569 871.089 276.386C870.709 276.202 870.283 276.111 869.81 276.111C869.307 276.111 868.869 276.215 868.494 276.424C868.123 276.629 867.835 276.916 867.631 277.287C867.43 277.658 867.33 278.092 867.33 278.591H865.822C865.822 277.824 865.999 277.151 866.352 276.571C866.706 275.991 867.187 275.54 867.797 275.216C868.41 274.892 869.099 274.73 869.861 274.73C870.628 274.73 871.308 274.892 871.9 275.216C872.493 275.54 872.957 275.977 873.294 276.526C873.631 277.076 873.799 277.688 873.799 278.361C873.799 278.842 873.712 279.313 873.537 279.773C873.366 280.229 873.068 280.739 872.642 281.301C872.22 281.859 871.634 282.541 870.884 283.347L867.944 286.491V286.594H874.029V288H865.771ZM881.322 274.295L877.104 289.969H875.723L879.942 274.295H881.322ZM883.085 288V286.849L887.406 282.119C887.913 281.565 888.331 281.084 888.659 280.675C888.987 280.261 889.23 279.874 889.388 279.511C889.549 279.145 889.63 278.761 889.63 278.361C889.63 277.901 889.52 277.502 889.298 277.165C889.081 276.829 888.782 276.569 888.403 276.386C888.024 276.202 887.598 276.111 887.125 276.111C886.622 276.111 886.183 276.215 885.808 276.424C885.437 276.629 885.15 276.916 884.945 277.287C884.745 277.658 884.645 278.092 884.645 278.591H883.136C883.136 277.824 883.313 277.151 883.667 276.571C884.02 275.991 884.502 275.54 885.111 275.216C885.725 274.892 886.413 274.73 887.176 274.73C887.943 274.73 888.623 274.892 889.215 275.216C889.807 275.54 890.272 275.977 890.608 276.526C890.945 277.076 891.113 277.688 891.113 278.361C891.113 278.842 891.026 279.313 890.851 279.773C890.681 280.229 890.383 280.739 889.956 281.301C889.535 281.859 888.949 282.541 888.199 283.347L885.258 286.491V286.594H891.343V288H883.085ZM898.407 288.179C897.563 288.179 896.811 288.034 896.15 287.744C895.494 287.455 894.972 287.052 894.584 286.536C894.201 286.016 893.992 285.413 893.958 284.727H895.569C895.603 285.149 895.748 285.513 896.003 285.82C896.259 286.123 896.593 286.357 897.007 286.523C897.42 286.69 897.878 286.773 898.381 286.773C898.944 286.773 899.442 286.675 899.877 286.479C900.312 286.283 900.652 286.01 900.9 285.661C901.147 285.311 901.27 284.906 901.27 284.446C901.27 283.964 901.151 283.54 900.912 283.174C900.674 282.803 900.324 282.513 899.864 282.305C899.404 282.096 898.841 281.991 898.177 281.991H897.128V280.585H898.177C898.696 280.585 899.152 280.491 899.544 280.304C899.941 280.116 900.25 279.852 900.471 279.511C900.697 279.17 900.81 278.77 900.81 278.31C900.81 277.866 900.712 277.481 900.516 277.153C900.32 276.825 900.043 276.569 899.685 276.386C899.331 276.202 898.914 276.111 898.432 276.111C897.981 276.111 897.554 276.194 897.154 276.36C896.758 276.522 896.434 276.759 896.182 277.07C895.931 277.376 895.794 277.747 895.773 278.182H894.239C894.265 277.496 894.471 276.895 894.859 276.379C895.247 275.859 895.754 275.455 896.38 275.165C897.011 274.875 897.704 274.73 898.458 274.73C899.268 274.73 899.962 274.894 900.542 275.222C901.121 275.546 901.567 275.974 901.878 276.507C902.189 277.04 902.344 277.615 902.344 278.233C902.344 278.97 902.15 279.599 901.763 280.119C901.379 280.638 900.857 280.999 900.196 281.199V281.301C901.023 281.437 901.669 281.789 902.133 282.356C902.598 282.918 902.83 283.615 902.83 284.446C902.83 285.158 902.636 285.797 902.248 286.364C901.865 286.926 901.341 287.369 900.676 287.693C900.011 288.017 899.255 288.179 898.407 288.179Z" fill="#131313"/>
<path d="M1018.47 288.179C1017.5 288.179 1016.68 287.917 1016.01 287.393C1015.33 286.864 1014.81 286.099 1014.45 285.098C1014.09 284.092 1013.92 282.878 1013.92 281.455C1013.92 280.04 1014.09 278.832 1014.45 277.83C1014.81 276.825 1015.33 276.058 1016.01 275.529C1016.69 274.996 1017.51 274.73 1018.47 274.73C1019.42 274.73 1020.24 274.996 1020.91 275.529C1021.6 276.058 1022.12 276.825 1022.47 277.83C1022.84 278.832 1023.02 280.04 1023.02 281.455C1023.02 282.878 1022.84 284.092 1022.48 285.098C1022.12 286.099 1021.61 286.864 1020.93 287.393C1020.25 287.917 1019.43 288.179 1018.47 288.179ZM1018.47 286.773C1019.42 286.773 1020.16 286.312 1020.69 285.392C1021.22 284.472 1021.48 283.159 1021.48 281.455C1021.48 280.321 1021.36 279.356 1021.12 278.559C1020.88 277.762 1020.54 277.155 1020.08 276.737C1019.64 276.32 1019.1 276.111 1018.47 276.111C1017.52 276.111 1016.78 276.577 1016.25 277.511C1015.72 278.44 1015.45 279.754 1015.45 281.455C1015.45 282.588 1015.57 283.551 1015.81 284.344C1016.05 285.136 1016.39 285.739 1016.84 286.153C1017.29 286.566 1017.83 286.773 1018.47 286.773ZM1029.79 288.179C1029.26 288.17 1028.72 288.068 1028.18 287.872C1027.65 287.676 1027.16 287.346 1026.71 286.881C1026.27 286.413 1025.91 285.78 1025.64 284.983C1025.38 284.182 1025.24 283.176 1025.24 281.966C1025.24 280.807 1025.35 279.78 1025.57 278.885C1025.79 277.986 1026.1 277.229 1026.51 276.616C1026.93 275.998 1027.43 275.529 1028.01 275.21C1028.6 274.89 1029.26 274.73 1030 274.73C1030.73 274.73 1031.38 274.877 1031.95 275.171C1032.53 275.461 1033 275.866 1033.36 276.386C1033.72 276.906 1033.96 277.504 1034.06 278.182H1032.5C1032.36 277.594 1032.08 277.106 1031.66 276.718C1031.24 276.33 1030.69 276.136 1030 276.136C1028.98 276.136 1028.18 276.577 1027.6 277.46C1027.02 278.342 1026.73 279.58 1026.73 281.173H1026.83C1027.07 280.811 1027.35 280.502 1027.68 280.246C1028.01 279.987 1028.38 279.786 1028.78 279.646C1029.18 279.505 1029.6 279.435 1030.05 279.435C1030.8 279.435 1031.49 279.622 1032.11 279.997C1032.73 280.368 1033.23 280.881 1033.6 281.538C1033.98 282.19 1034.17 282.938 1034.17 283.781C1034.17 284.591 1033.98 285.332 1033.62 286.006C1033.26 286.675 1032.75 287.207 1032.09 287.604C1031.44 287.996 1030.68 288.188 1029.79 288.179ZM1029.79 286.773C1030.33 286.773 1030.81 286.638 1031.24 286.37C1031.67 286.102 1032.01 285.741 1032.25 285.29C1032.51 284.838 1032.63 284.335 1032.63 283.781C1032.63 283.24 1032.51 282.748 1032.27 282.305C1032.03 281.857 1031.7 281.501 1031.28 281.237C1030.86 280.973 1030.38 280.841 1029.84 280.841C1029.44 280.841 1029.06 280.922 1028.71 281.084C1028.36 281.241 1028.06 281.459 1027.79 281.736C1027.53 282.013 1027.33 282.33 1027.18 282.688C1027.03 283.042 1026.96 283.415 1026.96 283.807C1026.96 284.327 1027.08 284.812 1027.32 285.264C1027.57 285.716 1027.9 286.08 1028.33 286.357C1028.76 286.634 1029.25 286.773 1029.79 286.773ZM1041.33 274.295L1037.11 289.969H1035.73L1039.95 274.295H1041.33ZM1047.36 288.179C1046.4 288.179 1045.58 287.917 1044.9 287.393C1044.23 286.864 1043.71 286.099 1043.35 285.098C1042.99 284.092 1042.81 282.878 1042.81 281.455C1042.81 280.04 1042.99 278.832 1043.35 277.83C1043.71 276.825 1044.23 276.058 1044.91 275.529C1045.59 274.996 1046.41 274.73 1047.36 274.73C1048.32 274.73 1049.14 274.996 1049.81 275.529C1050.49 276.058 1051.01 276.825 1051.37 277.83C1051.74 278.832 1051.92 280.04 1051.92 281.455C1051.92 282.878 1051.74 284.092 1051.38 285.098C1051.02 286.099 1050.5 286.864 1049.83 287.393C1049.15 287.917 1048.33 288.179 1047.36 288.179ZM1047.36 286.773C1048.32 286.773 1049.06 286.312 1049.59 285.392C1050.12 284.472 1050.38 283.159 1050.38 281.455C1050.38 280.321 1050.26 279.356 1050.02 278.559C1049.78 277.762 1049.43 277.155 1048.98 276.737C1048.53 276.32 1048 276.111 1047.36 276.111C1046.42 276.111 1045.68 276.577 1045.15 277.511C1044.61 278.44 1044.35 279.754 1044.35 281.455C1044.35 282.588 1044.47 283.551 1044.71 284.344C1044.94 285.136 1045.29 285.739 1045.74 286.153C1046.19 286.566 1046.73 286.773 1047.36 286.773ZM1054.35 288V286.849L1058.67 282.119C1059.17 281.565 1059.59 281.084 1059.92 280.675C1060.25 280.261 1060.49 279.874 1060.65 279.511C1060.81 279.145 1060.89 278.761 1060.89 278.361C1060.89 277.901 1060.78 277.502 1060.56 277.165C1060.34 276.829 1060.04 276.569 1059.66 276.386C1059.28 276.202 1058.86 276.111 1058.38 276.111C1057.88 276.111 1057.44 276.215 1057.07 276.424C1056.7 276.629 1056.41 276.916 1056.21 277.287C1056 277.658 1055.9 278.092 1055.9 278.591H1054.4C1054.4 277.824 1054.57 277.151 1054.93 276.571C1055.28 275.991 1055.76 275.54 1056.37 275.216C1056.99 274.892 1057.67 274.73 1058.44 274.73C1059.2 274.73 1059.88 274.892 1060.48 275.216C1061.07 275.54 1061.53 275.977 1061.87 276.526C1062.21 277.076 1062.37 277.688 1062.37 278.361C1062.37 278.842 1062.29 279.313 1062.11 279.773C1061.94 280.229 1061.64 280.739 1061.22 281.301C1060.79 281.859 1060.21 282.541 1059.46 283.347L1056.52 286.491V286.594H1062.6V288H1054.35ZM1069.9 274.295L1065.68 289.969H1064.3L1068.52 274.295H1069.9ZM1071.66 288V286.849L1075.98 282.119C1076.49 281.565 1076.91 281.084 1077.23 280.675C1077.56 280.261 1077.8 279.874 1077.96 279.511C1078.12 279.145 1078.21 278.761 1078.21 278.361C1078.21 277.901 1078.09 277.502 1077.87 277.165C1077.66 276.829 1077.36 276.569 1076.98 276.386C1076.6 276.202 1076.17 276.111 1075.7 276.111C1075.2 276.111 1074.76 276.215 1074.38 276.424C1074.01 276.629 1073.72 276.916 1073.52 277.287C1073.32 277.658 1073.22 278.092 1073.22 278.591H1071.71C1071.71 277.824 1071.89 277.151 1072.24 276.571C1072.59 275.991 1073.08 275.54 1073.69 275.216C1074.3 274.892 1074.99 274.73 1075.75 274.73C1076.52 274.73 1077.2 274.892 1077.79 275.216C1078.38 275.54 1078.85 275.977 1079.18 276.526C1079.52 277.076 1079.69 277.688 1079.69 278.361C1079.69 278.842 1079.6 279.313 1079.43 279.773C1079.26 280.229 1078.96 280.739 1078.53 281.301C1078.11 281.859 1077.52 282.541 1076.77 283.347L1073.83 286.491V286.594H1079.92V288H1071.66ZM1086.98 288.179C1086.14 288.179 1085.39 288.034 1084.72 287.744C1084.07 287.455 1083.55 287.052 1083.16 286.536C1082.78 286.016 1082.57 285.413 1082.53 284.727H1084.14C1084.18 285.149 1084.32 285.513 1084.58 285.82C1084.83 286.123 1085.17 286.357 1085.58 286.523C1085.99 286.69 1086.45 286.773 1086.96 286.773C1087.52 286.773 1088.02 286.675 1088.45 286.479C1088.89 286.283 1089.23 286.01 1089.47 285.661C1089.72 285.311 1089.84 284.906 1089.84 284.446C1089.84 283.964 1089.73 283.54 1089.49 283.174C1089.25 282.803 1088.9 282.513 1088.44 282.305C1087.98 282.096 1087.42 281.991 1086.75 281.991H1085.7V280.585H1086.75C1087.27 280.585 1087.73 280.491 1088.12 280.304C1088.52 280.116 1088.82 279.852 1089.05 279.511C1089.27 279.17 1089.38 278.77 1089.38 278.31C1089.38 277.866 1089.29 277.481 1089.09 277.153C1088.89 276.825 1088.62 276.569 1088.26 276.386C1087.91 276.202 1087.49 276.111 1087.01 276.111C1086.56 276.111 1086.13 276.194 1085.73 276.36C1085.33 276.522 1085.01 276.759 1084.76 277.07C1084.51 277.376 1084.37 277.747 1084.35 278.182H1082.81C1082.84 277.496 1083.05 276.895 1083.43 276.379C1083.82 275.859 1084.33 275.455 1084.96 275.165C1085.59 274.875 1086.28 274.73 1087.03 274.73C1087.84 274.73 1088.54 274.894 1089.12 275.222C1089.7 275.546 1090.14 275.974 1090.45 276.507C1090.76 277.04 1090.92 277.615 1090.92 278.233C1090.92 278.97 1090.72 279.599 1090.34 280.119C1089.95 280.638 1089.43 280.999 1088.77 281.199V281.301C1089.6 281.437 1090.24 281.789 1090.71 282.356C1091.17 282.918 1091.4 283.615 1091.4 284.446C1091.4 285.158 1091.21 285.797 1090.82 286.364C1090.44 286.926 1089.92 287.369 1089.25 287.693C1088.59 288.017 1087.83 288.179 1086.98 288.179Z" fill="#131313"/>
<path d="M1197.75 288.179C1196.79 288.179 1195.97 287.917 1195.29 287.393C1194.62 286.864 1194.1 286.099 1193.74 285.098C1193.38 284.092 1193.2 282.878 1193.2 281.455C1193.2 280.04 1193.38 278.832 1193.74 277.83C1194.1 276.825 1194.62 276.058 1195.3 275.529C1195.98 274.996 1196.8 274.73 1197.75 274.73C1198.71 274.73 1199.53 274.996 1200.2 275.529C1200.88 276.058 1201.4 276.825 1201.76 277.83C1202.12 278.832 1202.31 280.04 1202.31 281.455C1202.31 282.878 1202.13 284.092 1201.77 285.098C1201.41 286.099 1200.89 286.864 1200.22 287.393C1199.54 287.917 1198.72 288.179 1197.75 288.179ZM1197.75 286.773C1198.71 286.773 1199.45 286.312 1199.98 285.392C1200.51 284.472 1200.77 283.159 1200.77 281.455C1200.77 280.321 1200.65 279.356 1200.41 278.559C1200.17 277.762 1199.82 277.155 1199.37 276.737C1198.92 276.32 1198.39 276.111 1197.75 276.111C1196.81 276.111 1196.07 276.577 1195.54 277.511C1195 278.44 1194.74 279.754 1194.74 281.455C1194.74 282.588 1194.86 283.551 1195.1 284.344C1195.33 285.136 1195.68 285.739 1196.12 286.153C1196.58 286.566 1197.12 286.773 1197.75 286.773ZM1204.79 288L1210.65 276.418V276.315H1203.9V274.909H1212.28V276.392L1206.45 288H1204.79ZM1219.32 274.295L1215.1 289.969H1213.72L1217.94 274.295H1219.32ZM1225.35 288.179C1224.39 288.179 1223.57 287.917 1222.89 287.393C1222.21 286.864 1221.7 286.099 1221.34 285.098C1220.98 284.092 1220.8 282.878 1220.8 281.455C1220.8 280.04 1220.98 278.832 1221.34 277.83C1221.7 276.825 1222.22 276.058 1222.9 275.529C1223.58 274.996 1224.4 274.73 1225.35 274.73C1226.31 274.73 1227.12 274.996 1227.8 275.529C1228.48 276.058 1229 276.825 1229.36 277.83C1229.72 278.832 1229.9 280.04 1229.9 281.455C1229.9 282.878 1229.72 284.092 1229.37 285.098C1229.01 286.099 1228.49 286.864 1227.81 287.393C1227.14 287.917 1226.32 288.179 1225.35 288.179ZM1225.35 286.773C1226.31 286.773 1227.05 286.312 1227.58 285.392C1228.11 284.472 1228.37 283.159 1228.37 281.455C1228.37 280.321 1228.25 279.356 1228.01 278.559C1227.77 277.762 1227.42 277.155 1226.97 276.737C1226.52 276.32 1225.98 276.111 1225.35 276.111C1224.41 276.111 1223.67 276.577 1223.13 277.511C1222.6 278.44 1222.34 279.754 1222.34 281.455C1222.34 282.588 1222.45 283.551 1222.69 284.344C1222.93 285.136 1223.28 285.739 1223.72 286.153C1224.17 286.566 1224.72 286.773 1225.35 286.773ZM1232.33 288V286.849L1236.65 282.119C1237.16 281.565 1237.58 281.084 1237.91 280.675C1238.23 280.261 1238.48 279.874 1238.64 279.511C1238.8 279.145 1238.88 278.761 1238.88 278.361C1238.88 277.901 1238.77 277.502 1238.55 277.165C1238.33 276.829 1238.03 276.569 1237.65 276.386C1237.27 276.202 1236.85 276.111 1236.37 276.111C1235.87 276.111 1235.43 276.215 1235.06 276.424C1234.68 276.629 1234.4 276.916 1234.19 277.287C1233.99 277.658 1233.89 278.092 1233.89 278.591H1232.38C1232.38 277.824 1232.56 277.151 1232.91 276.571C1233.27 275.991 1233.75 275.54 1234.36 275.216C1234.97 274.892 1235.66 274.73 1236.42 274.73C1237.19 274.73 1237.87 274.892 1238.46 275.216C1239.05 275.54 1239.52 275.977 1239.86 276.526C1240.19 277.076 1240.36 277.688 1240.36 278.361C1240.36 278.842 1240.27 279.313 1240.1 279.773C1239.93 280.229 1239.63 280.739 1239.2 281.301C1238.78 281.859 1238.2 282.541 1237.45 283.347L1234.51 286.491V286.594H1240.59V288H1232.33ZM1247.88 274.295L1243.67 289.969H1242.29L1246.5 274.295H1247.88ZM1249.65 288V286.849L1253.97 282.119C1254.48 281.565 1254.89 281.084 1255.22 280.675C1255.55 280.261 1255.79 279.874 1255.95 279.511C1256.11 279.145 1256.19 278.761 1256.19 278.361C1256.19 277.901 1256.08 277.502 1255.86 277.165C1255.64 276.829 1255.34 276.569 1254.97 276.386C1254.59 276.202 1254.16 276.111 1253.69 276.111C1253.18 276.111 1252.75 276.215 1252.37 276.424C1252 276.629 1251.71 276.916 1251.51 277.287C1251.31 277.658 1251.21 278.092 1251.21 278.591H1249.7C1249.7 277.824 1249.88 277.151 1250.23 276.571C1250.58 275.991 1251.06 275.54 1251.67 275.216C1252.29 274.892 1252.98 274.73 1253.74 274.73C1254.51 274.73 1255.18 274.892 1255.78 275.216C1256.37 275.54 1256.83 275.977 1257.17 276.526C1257.51 277.076 1257.68 277.688 1257.68 278.361C1257.68 278.842 1257.59 279.313 1257.41 279.773C1257.24 280.229 1256.94 280.739 1256.52 281.301C1256.1 281.859 1255.51 282.541 1254.76 283.347L1251.82 286.491V286.594H1257.91V288H1249.65ZM1264.97 288.179C1264.13 288.179 1263.37 288.034 1262.71 287.744C1262.06 287.455 1261.53 287.052 1261.15 286.536C1260.76 286.016 1260.55 285.413 1260.52 284.727H1262.13C1262.16 285.149 1262.31 285.513 1262.57 285.82C1262.82 286.123 1263.16 286.357 1263.57 286.523C1263.98 286.69 1264.44 286.773 1264.94 286.773C1265.51 286.773 1266 286.675 1266.44 286.479C1266.87 286.283 1267.21 286.01 1267.46 285.661C1267.71 285.311 1267.83 284.906 1267.83 284.446C1267.83 283.964 1267.71 283.54 1267.47 283.174C1267.24 282.803 1266.89 282.513 1266.43 282.305C1265.97 282.096 1265.4 281.991 1264.74 281.991H1263.69V280.585H1264.74C1265.26 280.585 1265.71 280.491 1266.11 280.304C1266.5 280.116 1266.81 279.852 1267.03 279.511C1267.26 279.17 1267.37 278.77 1267.37 278.31C1267.37 277.866 1267.27 277.481 1267.08 277.153C1266.88 276.825 1266.61 276.569 1266.25 276.386C1265.89 276.202 1265.48 276.111 1264.99 276.111C1264.54 276.111 1264.12 276.194 1263.72 276.36C1263.32 276.522 1263 276.759 1262.74 277.07C1262.49 277.376 1262.36 277.747 1262.34 278.182H1260.8C1260.83 277.496 1261.03 276.895 1261.42 276.379C1261.81 275.859 1262.32 275.455 1262.94 275.165C1263.57 274.875 1264.27 274.73 1265.02 274.73C1265.83 274.73 1266.52 274.894 1267.1 275.222C1267.68 275.546 1268.13 275.974 1268.44 276.507C1268.75 277.04 1268.91 277.615 1268.91 278.233C1268.91 278.97 1268.71 279.599 1268.32 280.119C1267.94 280.638 1267.42 280.999 1266.76 281.199V281.301C1267.59 281.437 1268.23 281.789 1268.7 282.356C1269.16 282.918 1269.39 283.615 1269.39 284.446C1269.39 285.158 1269.2 285.797 1268.81 286.364C1268.43 286.926 1267.9 287.369 1267.24 287.693C1266.57 288.017 1265.82 288.179 1264.97 288.179Z" fill="#131313"/>
<path d="M1282.95 34.2979C1282.96 34.3089 1282.96 34.3235 1282.97 34.3344L1289.34 41.3786C1289.7 41.7749 1289.7 42.4177 1289.34 42.8141C1289.34 42.8177 1289.34 42.8195 1289.33 42.8214C1289.25 42.9173 1289.16 42.9948 1289.04 43.0485C1288.93 43.1021 1288.81 43.1305 1288.68 43.1318H1275.93C1275.8 43.1298 1275.68 43.0999 1275.56 43.0444C1275.45 42.9889 1275.35 42.909 1275.27 42.8104L1275.27 42.8141C1275.09 42.6146 1275 42.3599 1275 42.0963C1275 41.8327 1275.09 41.578 1275.27 41.3786L1281.66 34.2979C1281.74 34.2046 1281.84 34.1298 1281.95 34.0784C1282.06 34.0271 1282.18 34.0005 1282.3 34.0005C1282.42 34.0005 1282.55 34.0271 1282.66 34.0784C1282.77 34.1298 1282.87 34.2046 1282.95 34.2979Z" fill="#131313"/>
<rect x="778" y="158.464" width="178" height="74" fill="#131313"/>
<path d="M799.466 190.848V189.524L803.562 185.281C803.999 184.82 804.359 184.416 804.643 184.069C804.931 183.719 805.145 183.386 805.287 183.071C805.429 182.756 805.5 182.421 805.5 182.066C805.5 181.664 805.405 181.317 805.216 181.026C805.027 180.73 804.769 180.504 804.442 180.346C804.115 180.185 803.747 180.104 803.337 180.104C802.904 180.104 802.525 180.193 802.202 180.37C801.879 180.547 801.631 180.797 801.458 181.121C801.284 181.444 801.198 181.822 801.198 182.255H799.454C799.454 181.518 799.624 180.874 799.963 180.323C800.301 179.771 800.766 179.344 801.357 179.04C801.948 178.733 802.62 178.579 803.372 178.579C804.133 178.579 804.803 178.731 805.382 179.034C805.965 179.334 806.42 179.744 806.747 180.264C807.074 180.78 807.237 181.363 807.237 182.013C807.237 182.462 807.153 182.901 806.983 183.331C806.818 183.76 806.528 184.239 806.115 184.767C805.701 185.291 805.126 185.927 804.389 186.676L801.984 189.193V189.282H807.432V190.848H799.466ZM813.886 191.049C812.952 191.045 812.154 190.799 811.492 190.31C810.83 189.821 810.324 189.11 809.974 188.177C809.623 187.243 809.448 186.118 809.448 184.802C809.448 183.49 809.623 182.369 809.974 181.44C810.328 180.51 810.836 179.801 811.498 179.312C812.164 178.824 812.96 178.579 813.886 178.579C814.812 178.579 815.605 178.826 816.267 179.318C816.929 179.807 817.436 180.516 817.786 181.446C818.141 182.371 818.318 183.49 818.318 184.802C818.318 186.122 818.143 187.249 817.792 188.183C817.441 189.112 816.935 189.823 816.273 190.316C815.611 190.804 814.816 191.049 813.886 191.049ZM813.886 189.471C814.705 189.471 815.345 189.071 815.806 188.271C816.271 187.471 816.504 186.315 816.504 184.802C816.504 183.798 816.397 182.949 816.185 182.255C815.976 181.558 815.674 181.03 815.28 180.671C814.89 180.309 814.426 180.128 813.886 180.128C813.07 180.128 812.43 180.53 811.965 181.333C811.5 182.137 811.266 183.293 811.262 184.802C811.262 185.811 811.366 186.664 811.575 187.361C811.788 188.055 812.089 188.58 812.479 188.939C812.869 189.294 813.338 189.471 813.886 189.471ZM820.414 190.848V189.524L824.51 185.281C824.947 184.82 825.308 184.416 825.591 184.069C825.879 183.719 826.094 183.386 826.235 183.071C826.377 182.756 826.448 182.421 826.448 182.066C826.448 181.664 826.354 181.317 826.165 181.026C825.975 180.73 825.717 180.504 825.39 180.346C825.063 180.185 824.695 180.104 824.285 180.104C823.852 180.104 823.474 180.193 823.151 180.37C822.828 180.547 822.579 180.797 822.406 181.121C822.233 181.444 822.146 181.822 822.146 182.255H820.403C820.403 181.518 820.572 180.874 820.911 180.323C821.25 179.771 821.715 179.344 822.306 179.04C822.897 178.733 823.568 178.579 824.321 178.579C825.081 178.579 825.751 178.731 826.33 179.034C826.913 179.334 827.368 179.744 827.695 180.264C828.022 180.78 828.186 181.363 828.186 182.013C828.186 182.462 828.101 182.901 827.932 183.331C827.766 183.76 827.477 184.239 827.063 184.767C826.649 185.291 826.074 185.927 825.337 186.676L822.932 189.193V189.282H828.381V190.848H820.414ZM834.834 191.013C834.022 191.013 833.298 190.873 832.659 190.594C832.025 190.314 831.523 189.926 831.152 189.429C830.786 188.929 830.589 188.35 830.561 187.692H832.417C832.441 188.051 832.561 188.362 832.777 188.626C832.998 188.886 833.286 189.087 833.64 189.229C833.995 189.37 834.389 189.441 834.822 189.441C835.299 189.441 835.72 189.359 836.087 189.193C836.457 189.028 836.747 188.797 836.956 188.502C837.164 188.202 837.269 187.858 837.269 187.467C837.269 187.062 837.164 186.705 836.956 186.398C836.751 186.087 836.449 185.842 836.051 185.665C835.657 185.488 835.181 185.399 834.621 185.399H833.599V183.91H834.621C835.07 183.91 835.464 183.829 835.803 183.668C836.146 183.506 836.414 183.281 836.607 182.994C836.8 182.702 836.897 182.362 836.897 181.971C836.897 181.597 836.812 181.272 836.642 180.996C836.477 180.717 836.241 180.498 835.933 180.34C835.63 180.183 835.271 180.104 834.858 180.104C834.464 180.104 834.095 180.177 833.753 180.323C833.414 180.465 833.138 180.669 832.925 180.937C832.712 181.201 832.598 181.518 832.582 181.889H830.815C830.835 181.235 831.028 180.66 831.395 180.163C831.765 179.667 832.253 179.279 832.86 178.999C833.467 178.719 834.141 178.579 834.881 178.579C835.657 178.579 836.327 178.731 836.891 179.034C837.458 179.334 837.895 179.734 838.203 180.234C838.514 180.734 838.667 181.282 838.664 181.877C838.667 182.555 838.478 183.13 838.096 183.603C837.718 184.075 837.214 184.392 836.583 184.554V184.649C837.387 184.771 838.01 185.09 838.451 185.606C838.896 186.122 839.117 186.762 839.113 187.527C839.117 188.192 838.931 188.789 838.557 189.317C838.187 189.845 837.681 190.261 837.038 190.564C836.396 190.864 835.661 191.013 834.834 191.013ZM846.718 184.028V185.565H841.352V184.028H846.718ZM853.263 191.049C852.33 191.045 851.532 190.799 850.87 190.31C850.208 189.821 849.702 189.11 849.351 188.177C849 187.243 848.825 186.118 848.825 184.802C848.825 183.49 849 182.369 849.351 181.44C849.706 180.51 850.214 179.801 850.876 179.312C851.542 178.824 852.337 178.579 853.263 178.579C854.189 178.579 854.983 178.826 855.645 179.318C856.307 179.807 856.813 180.516 857.164 181.446C857.518 182.371 857.696 183.49 857.696 184.802C857.696 186.122 857.52 187.249 857.17 188.183C856.819 189.112 856.313 189.823 855.651 190.316C854.989 190.804 854.193 191.049 853.263 191.049ZM853.263 189.471C854.083 189.471 854.723 189.071 855.184 188.271C855.649 187.471 855.881 186.315 855.881 184.802C855.881 183.798 855.775 182.949 855.562 182.255C855.353 181.558 855.052 181.03 854.658 180.671C854.268 180.309 853.803 180.128 853.263 180.128C852.448 180.128 851.808 180.53 851.343 181.333C850.878 182.137 850.643 183.293 850.639 184.802C850.639 185.811 850.744 186.664 850.953 187.361C851.165 188.055 851.467 188.58 851.857 188.939C852.247 189.294 852.716 189.471 853.263 189.471ZM859.538 188.484V187.007L864.768 178.745H865.932V180.92H865.193L861.453 186.841V186.936H868.621V188.484H859.538ZM865.276 190.848V188.035L865.288 187.361V178.745H867.02V190.848H865.276ZM876.052 184.028V185.565H870.686V184.028H876.052ZM882.976 178.745V190.848H881.144V180.577H881.073L878.177 182.468V180.719L881.197 178.745H882.976ZM885.995 188.484V187.007L891.226 178.745H892.39V180.92H891.651L887.91 186.841V186.936H895.079V188.484H885.995ZM891.734 190.848V188.035L891.746 187.361V178.745H893.477V190.848H891.734Z" fill="white"/>
<path d="M799.052 212.575V200.472H803.827C804.741 200.472 805.521 200.635 806.167 200.962C806.817 201.286 807.312 201.745 807.65 202.339C807.993 202.93 808.165 203.626 808.165 204.426C808.165 205.229 807.991 205.921 807.645 206.5C807.298 207.075 806.796 207.516 806.138 207.824C805.484 208.131 804.692 208.285 803.762 208.285H800.565V206.228H803.348C803.837 206.228 804.243 206.161 804.566 206.027C804.889 205.893 805.129 205.692 805.287 205.424C805.448 205.156 805.529 204.823 805.529 204.426C805.529 204.024 805.448 203.685 805.287 203.409C805.129 203.133 804.887 202.925 804.56 202.783C804.237 202.637 803.829 202.564 803.336 202.564H801.611V212.575H799.052ZM805.588 207.067L808.596 212.575H805.771L802.828 207.067H805.588ZM813.916 212.752C812.982 212.752 812.179 212.563 811.505 212.185C810.835 211.803 810.319 211.263 809.957 210.566C809.594 209.864 809.413 209.035 809.413 208.078C809.413 207.144 809.594 206.325 809.957 205.619C810.319 204.914 810.829 204.364 811.487 203.971C812.149 203.577 812.925 203.38 813.816 203.38C814.415 203.38 814.972 203.476 815.488 203.669C816.008 203.858 816.461 204.144 816.847 204.526C817.237 204.908 817.541 205.389 817.757 205.968C817.974 206.543 818.083 207.217 818.083 207.989V208.681H810.418V207.12H815.713C815.713 206.758 815.634 206.437 815.476 206.157C815.319 205.877 815.1 205.659 814.82 205.501C814.545 205.34 814.223 205.259 813.857 205.259C813.475 205.259 813.136 205.347 812.841 205.525C812.549 205.698 812.321 205.933 812.155 206.228C811.99 206.52 811.905 206.845 811.901 207.203V208.686C811.901 209.136 811.984 209.524 812.149 209.851C812.319 210.178 812.557 210.43 812.864 210.607C813.172 210.784 813.536 210.873 813.958 210.873C814.237 210.873 814.493 210.834 814.726 210.755C814.958 210.676 815.157 210.558 815.323 210.4C815.488 210.243 815.614 210.05 815.701 209.821L818.029 209.975C817.911 210.534 817.669 211.023 817.302 211.44C816.94 211.854 816.471 212.177 815.896 212.41C815.325 212.638 814.665 212.752 813.916 212.752ZM827.944 203.498L824.771 212.575H821.934L818.761 203.498H821.42L823.305 209.992H823.4L825.279 203.498H827.944ZM833.077 212.752C832.143 212.752 831.339 212.563 830.666 212.185C829.996 211.803 829.48 211.263 829.117 210.566C828.755 209.864 828.574 209.035 828.574 208.078C828.574 207.144 828.755 206.325 829.117 205.619C829.48 204.914 829.99 204.364 830.648 203.971C831.31 203.577 832.086 203.38 832.976 203.38C833.575 203.38 834.133 203.476 834.649 203.669C835.169 203.858 835.622 204.144 836.008 204.526C836.398 204.908 836.701 205.389 836.918 205.968C837.135 206.543 837.243 207.217 837.243 207.989V208.681H829.578V207.12H834.873C834.873 206.758 834.795 206.437 834.637 206.157C834.479 205.877 834.261 205.659 833.981 205.501C833.705 205.34 833.384 205.259 833.018 205.259C832.636 205.259 832.297 205.347 832.001 205.525C831.71 205.698 831.481 205.933 831.316 206.228C831.15 206.52 831.066 206.845 831.062 207.203V208.686C831.062 209.136 831.144 209.524 831.31 209.851C831.479 210.178 831.718 210.43 832.025 210.607C832.332 210.784 832.697 210.873 833.118 210.873C833.398 210.873 833.654 210.834 833.886 210.755C834.119 210.676 834.318 210.558 834.483 210.4C834.649 210.243 834.775 210.05 834.862 209.821L837.19 209.975C837.072 210.534 836.829 211.023 836.463 211.44C836.101 211.854 835.632 212.177 835.057 212.41C834.485 212.638 833.825 212.752 833.077 212.752ZM841.403 207.327V212.575H838.886V203.498H841.285V205.099H841.392C841.593 204.571 841.929 204.154 842.402 203.846C842.875 203.535 843.448 203.38 844.122 203.38C844.752 203.38 845.302 203.517 845.771 203.793C846.24 204.069 846.604 204.463 846.864 204.975C847.124 205.483 847.254 206.09 847.254 206.795V212.575H844.737V207.244C844.74 206.689 844.599 206.256 844.311 205.944C844.023 205.629 843.627 205.472 843.123 205.472C842.784 205.472 842.485 205.544 842.225 205.69C841.969 205.836 841.768 206.049 841.622 206.328C841.48 206.604 841.407 206.937 841.403 207.327ZM855.059 208.71V203.498H857.577V212.575H855.16V210.926H855.065C854.86 211.458 854.519 211.886 854.043 212.209C853.57 212.532 852.993 212.693 852.311 212.693C851.705 212.693 851.171 212.555 850.71 212.279C850.249 212.004 849.888 211.612 849.628 211.103C849.372 210.595 849.242 209.987 849.238 209.277V203.498H851.756V208.828C851.76 209.364 851.903 209.788 852.187 210.099C852.471 210.41 852.851 210.566 853.328 210.566C853.631 210.566 853.915 210.497 854.179 210.359C854.443 210.217 854.655 210.008 854.817 209.732C854.982 209.457 855.063 209.116 855.059 208.71ZM863.727 212.752C862.794 212.752 861.99 212.563 861.316 212.185C860.646 211.803 860.13 211.263 859.768 210.566C859.405 209.864 859.224 209.035 859.224 208.078C859.224 207.144 859.405 206.325 859.768 205.619C860.13 204.914 860.64 204.364 861.298 203.971C861.96 203.577 862.736 203.38 863.627 203.38C864.226 203.38 864.783 203.476 865.299 203.669C865.819 203.858 866.272 204.144 866.658 204.526C867.048 204.908 867.352 205.389 867.569 205.968C867.785 206.543 867.894 207.217 867.894 207.989V208.681H860.229V207.12H865.524C865.524 206.758 865.445 206.437 865.287 206.157C865.13 205.877 864.911 205.659 864.631 205.501C864.356 205.34 864.035 205.259 863.668 205.259C863.286 205.259 862.947 205.347 862.652 205.525C862.36 205.698 862.132 205.933 861.966 206.228C861.801 206.52 861.716 206.845 861.712 207.203V208.686C861.712 209.136 861.795 209.524 861.96 209.851C862.13 210.178 862.368 210.43 862.675 210.607C862.983 210.784 863.347 210.873 863.769 210.873C864.048 210.873 864.304 210.834 864.537 210.755C864.769 210.676 864.968 210.558 865.134 210.4C865.299 210.243 865.425 210.05 865.512 209.821L867.84 209.975C867.722 210.534 867.48 211.023 867.113 211.44C866.751 211.854 866.282 212.177 865.707 212.41C865.136 212.638 864.476 212.752 863.727 212.752ZM871.008 212.729C870.618 212.729 870.283 212.591 870.003 212.315C869.728 212.035 869.59 211.7 869.59 211.31C869.59 210.924 869.728 210.593 870.003 210.317C870.283 210.042 870.618 209.904 871.008 209.904C871.386 209.904 871.717 210.042 872.001 210.317C872.284 210.593 872.426 210.924 872.426 211.31C872.426 211.57 872.359 211.809 872.225 212.025C872.095 212.238 871.924 212.41 871.711 212.54C871.498 212.666 871.264 212.729 871.008 212.729ZM871.008 206.37C870.618 206.37 870.283 206.232 870.003 205.956C869.728 205.68 869.59 205.345 869.59 204.952C869.59 204.565 869.728 204.236 870.003 203.965C870.283 203.689 870.618 203.551 871.008 203.551C871.386 203.551 871.717 203.689 872.001 203.965C872.284 204.236 872.426 204.565 872.426 204.952C872.426 205.215 872.359 205.456 872.225 205.672C872.095 205.885 871.924 206.055 871.711 206.181C871.498 206.307 871.264 206.37 871.008 206.37ZM882.387 214.088V198.959H883.356V214.088H882.387ZM884.958 203.953C884.91 203.476 884.708 203.106 884.349 202.842C883.99 202.578 883.504 202.446 882.889 202.446C882.472 202.446 882.119 202.505 881.831 202.623C881.544 202.737 881.323 202.897 881.17 203.102C881.02 203.307 880.945 203.539 880.945 203.799C880.937 204.016 880.982 204.205 881.081 204.366C881.183 204.528 881.323 204.668 881.501 204.786C881.678 204.9 881.883 205.001 882.115 205.087C882.348 205.17 882.596 205.241 882.86 205.3L883.947 205.56C884.475 205.678 884.96 205.836 885.401 206.033C885.842 206.23 886.224 206.472 886.547 206.76C886.87 207.047 887.121 207.386 887.298 207.776C887.479 208.166 887.572 208.614 887.576 209.118C887.572 209.859 887.383 210.501 887.008 211.044C886.638 211.584 886.102 212.004 885.401 212.303C884.704 212.599 883.862 212.746 882.877 212.746C881.9 212.746 881.049 212.597 880.325 212.297C879.604 211.998 879.04 211.555 878.634 210.968C878.233 210.377 878.022 209.646 878.002 208.775H880.478C880.506 209.181 880.622 209.52 880.827 209.792C881.036 210.059 881.313 210.262 881.66 210.4C882.011 210.534 882.407 210.601 882.848 210.601C883.281 210.601 883.658 210.538 883.977 210.412C884.3 210.286 884.55 210.111 884.727 209.886C884.905 209.662 884.993 209.403 884.993 209.112C884.993 208.84 884.912 208.612 884.751 208.426C884.593 208.241 884.361 208.084 884.054 207.954C883.75 207.824 883.378 207.705 882.937 207.599L881.619 207.268C880.598 207.02 879.793 206.632 879.202 206.104C878.611 205.576 878.317 204.865 878.321 203.971C878.317 203.238 878.512 202.598 878.906 202.05C879.304 201.502 879.85 201.075 880.543 200.767C881.237 200.46 882.025 200.307 882.907 200.307C883.805 200.307 884.589 200.46 885.259 200.767C885.933 201.075 886.457 201.502 886.831 202.05C887.205 202.598 887.398 203.232 887.41 203.953H884.958ZM889.226 212.575V210.731L893.534 206.742C893.9 206.388 894.208 206.068 894.456 205.785C894.708 205.501 894.899 205.223 895.029 204.952C895.159 204.676 895.224 204.378 895.224 204.059C895.224 203.705 895.143 203.399 894.982 203.143C894.82 202.883 894.6 202.684 894.32 202.546C894.04 202.404 893.723 202.334 893.369 202.334C892.998 202.334 892.675 202.408 892.399 202.558C892.124 202.708 891.911 202.923 891.761 203.202C891.611 203.482 891.537 203.815 891.537 204.201H889.108C889.108 203.409 889.287 202.722 889.646 202.139C890.004 201.555 890.506 201.104 891.152 200.785C891.799 200.466 892.543 200.307 893.386 200.307C894.253 200.307 895.008 200.46 895.65 200.767C896.296 201.071 896.798 201.492 897.157 202.032C897.515 202.572 897.694 203.19 897.694 203.888C897.694 204.345 897.604 204.796 897.423 205.241C897.245 205.686 896.928 206.181 896.471 206.724C896.014 207.264 895.37 207.912 894.539 208.669L892.772 210.4V210.483H897.854V212.575H889.226ZM902.468 210.92L902.403 211.57C902.352 212.09 902.253 212.608 902.108 213.125C901.966 213.645 901.816 214.115 901.658 214.537C901.505 214.959 901.381 215.289 901.286 215.53H899.655C899.714 215.297 899.795 214.972 899.897 214.555C900 214.141 900.096 213.676 900.187 213.16C900.278 212.644 900.335 212.118 900.358 211.582L900.388 210.92H902.468ZM908.774 212.74C907.864 212.74 907.054 212.593 906.345 212.297C905.64 211.998 905.086 211.59 904.684 211.074C904.282 210.558 904.081 209.973 904.081 209.319C904.081 208.814 904.196 208.352 904.424 207.93C904.657 207.504 904.972 207.152 905.37 206.872C905.768 206.588 906.213 206.407 906.705 206.328V206.246C906.059 206.116 905.535 205.803 905.133 205.306C904.731 204.806 904.53 204.225 904.53 203.563C904.53 202.936 904.714 202.379 905.08 201.89C905.446 201.398 905.949 201.012 906.587 200.732C907.229 200.448 907.958 200.307 908.774 200.307C909.589 200.307 910.316 200.448 910.954 200.732C911.596 201.016 912.101 201.404 912.467 201.896C912.834 202.385 913.019 202.94 913.023 203.563C913.019 204.229 912.814 204.81 912.408 205.306C912.002 205.803 911.482 206.116 910.848 206.246V206.328C911.333 206.407 911.772 206.588 912.166 206.872C912.564 207.152 912.879 207.504 913.111 207.93C913.348 208.352 913.468 208.814 913.472 209.319C913.468 209.973 913.265 210.558 912.863 211.074C912.461 211.59 911.906 211.998 911.197 212.297C910.491 212.593 909.684 212.74 908.774 212.74ZM908.774 210.861C909.179 210.861 909.534 210.788 909.837 210.643C910.141 210.493 910.377 210.288 910.547 210.028C910.72 209.764 910.807 209.461 910.807 209.118C910.807 208.767 910.718 208.458 910.541 208.19C910.363 207.918 910.123 207.705 909.82 207.552C909.516 207.394 909.168 207.315 908.774 207.315C908.384 207.315 908.035 207.394 907.728 207.552C907.42 207.705 907.178 207.918 907.001 208.19C906.827 208.458 906.741 208.767 906.741 209.118C906.741 209.461 906.825 209.764 906.995 210.028C907.164 210.288 907.403 210.493 907.71 210.643C908.017 210.788 908.372 210.861 908.774 210.861ZM908.774 205.454C909.112 205.454 909.414 205.385 909.678 205.247C909.942 205.109 910.149 204.918 910.298 204.674C910.448 204.429 910.523 204.148 910.523 203.829C910.523 203.514 910.448 203.238 910.298 203.001C910.149 202.761 909.944 202.574 909.684 202.44C909.424 202.302 909.12 202.233 908.774 202.233C908.431 202.233 908.128 202.302 907.864 202.44C907.6 202.574 907.393 202.761 907.243 203.001C907.097 203.238 907.024 203.514 907.024 203.829C907.024 204.148 907.099 204.429 907.249 204.674C907.399 204.918 907.605 205.109 907.869 205.247C908.133 205.385 908.435 205.454 908.774 205.454ZM919.776 212.74C918.866 212.74 918.056 212.593 917.347 212.297C916.642 211.998 916.088 211.59 915.686 211.074C915.285 210.558 915.084 209.973 915.084 209.319C915.084 208.814 915.198 208.352 915.426 207.93C915.659 207.504 915.974 207.152 916.372 206.872C916.77 206.588 917.215 206.407 917.708 206.328V206.246C917.061 206.116 916.537 205.803 916.136 205.306C915.734 204.806 915.533 204.225 915.533 203.563C915.533 202.936 915.716 202.379 916.082 201.89C916.449 201.398 916.951 201.012 917.589 200.732C918.232 200.448 918.96 200.307 919.776 200.307C920.591 200.307 921.318 200.448 921.957 200.732C922.599 201.016 923.103 201.404 923.469 201.896C923.836 202.385 924.021 202.94 924.025 203.563C924.021 204.229 923.816 204.81 923.41 205.306C923.005 205.803 922.485 206.116 921.85 206.246V206.328C922.335 206.407 922.774 206.588 923.168 206.872C923.566 207.152 923.881 207.504 924.114 207.93C924.35 208.352 924.47 208.814 924.474 209.319C924.47 209.973 924.267 210.558 923.865 211.074C923.464 211.59 922.908 211.998 922.199 212.297C921.494 212.593 920.686 212.74 919.776 212.74ZM919.776 210.861C920.182 210.861 920.536 210.788 920.84 210.643C921.143 210.493 921.379 210.288 921.549 210.028C921.722 209.764 921.809 209.461 921.809 209.118C921.809 208.767 921.72 208.458 921.543 208.19C921.366 207.918 921.125 207.705 920.822 207.552C920.519 207.394 920.17 207.315 919.776 207.315C919.386 207.315 919.037 207.394 918.73 207.552C918.423 207.705 918.18 207.918 918.003 208.19C917.83 208.458 917.743 208.767 917.743 209.118C917.743 209.461 917.828 209.764 917.997 210.028C918.167 210.288 918.405 210.493 918.712 210.643C919.02 210.788 919.374 210.861 919.776 210.861ZM919.776 205.454C920.115 205.454 920.416 205.385 920.68 205.247C920.944 205.109 921.151 204.918 921.301 204.674C921.45 204.429 921.525 204.148 921.525 203.829C921.525 203.514 921.45 203.238 921.301 203.001C921.151 202.761 920.946 202.574 920.686 202.44C920.426 202.302 920.123 202.233 919.776 202.233C919.433 202.233 919.13 202.302 918.866 202.44C918.602 202.574 918.395 202.761 918.245 203.001C918.1 203.238 918.027 203.514 918.027 203.829C918.027 204.148 918.102 204.429 918.251 204.674C918.401 204.918 918.608 205.109 918.872 205.247C919.136 205.385 919.437 205.454 919.776 205.454ZM930.778 212.74C929.868 212.74 929.059 212.593 928.349 212.297C927.644 211.998 927.091 211.59 926.689 211.074C926.287 210.558 926.086 209.973 926.086 209.319C926.086 208.814 926.2 208.352 926.429 207.93C926.661 207.504 926.976 207.152 927.374 206.872C927.772 206.588 928.217 206.407 928.71 206.328V206.246C928.064 206.116 927.54 205.803 927.138 205.306C926.736 204.806 926.535 204.225 926.535 203.563C926.535 202.936 926.718 202.379 927.085 201.89C927.451 201.398 927.953 201.012 928.592 200.732C929.234 200.448 929.963 200.307 930.778 200.307C931.594 200.307 932.321 200.448 932.959 200.732C933.601 201.016 934.105 201.404 934.472 201.896C934.838 202.385 935.023 202.94 935.027 203.563C935.023 204.229 934.818 204.81 934.413 205.306C934.007 205.803 933.487 206.116 932.853 206.246V206.328C933.337 206.407 933.776 206.588 934.17 206.872C934.568 207.152 934.883 207.504 935.116 207.93C935.352 208.352 935.472 208.814 935.476 209.319C935.472 209.973 935.27 210.558 934.868 211.074C934.466 211.59 933.91 211.998 933.201 212.297C932.496 212.593 931.688 212.74 930.778 212.74ZM930.778 210.861C931.184 210.861 931.539 210.788 931.842 210.643C932.145 210.493 932.382 210.288 932.551 210.028C932.724 209.764 932.811 209.461 932.811 209.118C932.811 208.767 932.723 208.458 932.545 208.19C932.368 207.918 932.128 207.705 931.824 207.552C931.521 207.394 931.172 207.315 930.778 207.315C930.388 207.315 930.04 207.394 929.732 207.552C929.425 207.705 929.183 207.918 929.005 208.19C928.832 208.458 928.745 208.767 928.745 209.118C928.745 209.461 928.83 209.764 928.999 210.028C929.169 210.288 929.407 210.493 929.715 210.643C930.022 210.788 930.376 210.861 930.778 210.861ZM930.778 205.454C931.117 205.454 931.418 205.385 931.682 205.247C931.946 205.109 932.153 204.918 932.303 204.674C932.453 204.429 932.528 204.148 932.528 203.829C932.528 203.514 932.453 203.238 932.303 203.001C932.153 202.761 931.948 202.574 931.688 202.44C931.428 202.302 931.125 202.233 930.778 202.233C930.435 202.233 930.132 202.302 929.868 202.44C929.604 202.574 929.397 202.761 929.248 203.001C929.102 203.238 929.029 203.514 929.029 203.829C929.029 204.148 929.104 204.429 929.254 204.674C929.403 204.918 929.61 205.109 929.874 205.247C930.138 205.385 930.439 205.454 930.778 205.454Z" fill="white"/>
<path d="M866.873 149.464L883.218 166.756H850.529L866.873 149.464Z" fill="#131313"/>
<circle cx="866" cy="135.464" r="10" fill="#008F46" fill-opacity="0.5"/>
<circle cx="865.474" cy="135.99" r="4.21053" fill="#008F46"/>
</svg>
