<svg width="24" height="20" viewBox="0 0 24 20" fill="none" xmlns="http://www.w3.org/2000/svg">
<path d="M5.81506 13.9391C5.81506 14.8497 6.55319 15.5878 7.46371 15.5878C8.37424 15.5878 9.11236 14.8497 9.11236 13.9391C9.11236 13.7966 9.08869 13.6609 9.05466 13.529L11.1993 9.77512L14.9541 11.9208C15.1527 12.6087 15.7796 13.1148 16.5313 13.1148C17.4418 13.1148 18.1799 12.3767 18.1799 11.4662C18.1799 11.3165 18.1536 11.1742 18.1162 11.0363L21.1262 5.61864C21.8044 5.41421 22.3016 4.79208 22.3016 4.04724C22.3016 3.13671 21.5634 2.39859 20.6529 2.39859C19.7424 2.39859 19.0043 3.13671 19.0043 4.04724C19.0043 4.19633 19.0304 4.33811 19.0675 4.47542L16.08 9.85226L12.3379 7.71348C12.1394 7.026 11.5124 6.52022 10.761 6.52022C9.85049 6.52022 9.11236 7.25834 9.11236 8.16887C9.11236 8.31159 9.13627 8.44772 9.1703 8.57973L7.00939 12.3619C6.32143 12.5602 5.81506 13.1874 5.81506 13.9391Z" fill="#D3FE8A"/>
<path d="M22.3745 17.2365H2.35521V1.92761C2.35521 1.27674 1.82847 0.75 1.17761 0.75C0.526744 0.75 0 1.27674 0 1.92761V18.4141C0 19.065 0.526744 19.5917 1.17761 19.5917H22.3745C23.0254 19.5917 23.5521 19.065 23.5521 18.4141C23.5521 17.7632 23.0254 17.2365 22.3745 17.2365Z" fill="#D3FE8A"/>
</svg>
