<svg width="238" height="24" viewBox="0 0 238 24" fill="none" xmlns="http://www.w3.org/2000/svg">
<g clip-path="url(#clip0_213_277)">
<path d="M235.607 22.4152V17.7387L234.366 22.4152H235.607Z" fill="white"/>
<path d="M209.928 20.352C210.551 20.352 211.06 20.855 211.06 21.4735C211.06 21.8673 210.857 22.2141 210.551 22.4174H213.791C212.19 21.9637 211.242 20.7458 211.242 19.0101C211.242 16.7863 212.794 15.4058 215.294 15.4058C217.323 15.4058 219.014 16.705 219.219 18.3872H216.653C216.456 17.9656 215.946 17.6767 215.375 17.6767C214.527 17.6767 213.911 18.2374 213.911 19.0079C213.911 19.7784 214.527 20.3306 215.375 20.3306C215.946 20.3306 216.456 20.0438 216.653 19.62H219.219C219.061 20.9213 218.018 21.9893 216.623 22.4153H222.23C220.587 21.9701 219.671 20.7844 219.671 19.0079C219.671 16.6836 221.15 15.4037 223.833 15.4037C226.517 15.4037 227.996 16.6836 227.996 19.0079C227.996 20.7844 227.08 21.9701 225.437 22.4153H228.538V15.5963H232.47L233.291 19.1214L234.199 15.5963H238.002V0.532959H209.474V20.4462C209.613 20.3841 209.767 20.3499 209.93 20.3499L209.928 20.352Z" fill="white"/>
<path d="M232.3 22.4152L230.971 17.7387V22.4152H232.3Z" fill="white"/>
<path d="M225.325 19.0079C225.325 18.1925 224.739 17.666 223.831 17.666C222.924 17.666 222.337 18.1925 222.337 19.0079C222.337 19.8234 222.909 20.3392 223.831 20.3392C224.754 20.3392 225.325 19.8298 225.325 19.0079Z" fill="white"/>
<path d="M18.2738 14.6631C20.0759 13.3811 20.9513 11.3478 20.9513 8.45202C20.9513 3.12485 17.8714 0.532959 11.5383 0.532959H0V22.4153H7.80777V16.3368H10.8042L13.7299 22.4153H22.0236L17.9613 14.8857L18.2738 14.6631ZM10.725 10.7079H7.80777V6.16406H10.725C12.0819 6.16406 13.3383 6.44229 13.3383 8.45202C13.3383 10.4618 12.0819 10.7079 10.725 10.7079Z" fill="white"/>
<path d="M31.2482 14.1259H41.4617V8.82229H31.2482V6.48724H42.4055V0.532959H23.4725V22.4153H42.4055V16.4931H31.2482V14.1259Z" fill="white"/>
<path d="M51.3648 22.4153H59.1725V7.399H66.1006V0.532959H44.4366V7.399H51.3648V22.4153Z" fill="white"/>
<path d="M75.9075 14.1259H86.121V8.82229H75.9075V6.48724H87.0627V0.532959H68.1318V22.4153H87.0627V16.4931H75.9075V14.1259Z" fill="white"/>
<path d="M97.6999 0.532959H89.0959V22.4153H96.9037V10.8106H96.8609L103.881 22.4153H112.202V0.532959H104.395V11.8444L97.6999 0.532959Z" fill="white"/>
<path d="M121.164 22.4153H128.972V7.399H135.9V0.532959H114.236V7.399H121.164V22.4153Z" fill="white"/>
<path d="M141.539 15.5492H137.931V22.4153H152.921V15.5492H149.315V7.399H152.921V0.532959H137.931V7.399H141.539V15.5492Z" fill="white"/>
<path d="M168.331 0C159.725 0 154.985 4.10507 154.985 11.5576C154.985 19.01 159.849 23.1172 168.331 23.1172C176.813 23.1172 181.678 18.9052 181.678 11.5576C181.678 4.20995 176.938 0 168.331 0ZM168.331 15.8296C165.376 15.8296 163.541 14.1922 163.541 11.5597C163.541 8.92714 165.423 7.25558 168.331 7.25558C171.24 7.25558 173.121 8.94426 173.121 11.5597C173.121 14.1751 171.285 15.8296 168.331 15.8296Z" fill="white"/>
<path d="M192.356 0.532959H183.709V22.4153H191.517V10.8106L198.537 22.4153H206.861V0.532959H199.051V11.8444L192.356 0.532959Z" fill="white"/>
</g>
<defs>
<clipPath id="clip0_213_277">
<rect width="238" height="23.1172" fill="white"/>
</clipPath>
</defs>
</svg>
