<svg width="29" height="29" viewBox="0 0 29 29" fill="none" xmlns="http://www.w3.org/2000/svg">
<path d="M14.2978 3.00125C11.9687 3.00125 9.69194 3.6919 7.75537 4.98587C5.81881 6.27984 4.30944 8.11902 3.41813 10.2708C2.52683 12.4226 2.29363 14.7904 2.74801 17.0747C3.20239 19.3591 4.32395 21.4573 5.97087 23.1043C7.61778 24.7512 9.71607 25.8727 12.0004 26.3271C14.2847 26.7815 16.6525 26.5483 18.8043 25.657C20.9561 24.7657 22.7953 23.2563 24.0893 21.3198C25.3832 19.3832 26.0739 17.1064 26.0739 14.7773C26.0739 13.2309 25.7693 11.6995 25.1775 10.2708C24.5857 8.84207 23.7183 7.54389 22.6247 6.45038C21.5312 5.35687 20.2331 4.48945 18.8043 3.89765C17.3756 3.30584 15.8443 3.00125 14.2978 3.00125ZM14.2978 24.1982C12.4345 24.1982 10.6131 23.6457 9.06386 22.6105C7.51461 21.5753 6.30711 20.104 5.59407 18.3825C4.88103 16.6611 4.69446 14.7669 5.05797 12.9394C5.42147 11.1119 6.31872 9.4333 7.63625 8.11577C8.95378 6.79824 10.6324 5.90099 12.4599 5.53748C14.2874 5.17398 16.1816 5.36054 17.903 6.07358C19.6244 6.78662 21.0958 7.99412 22.131 9.54337C23.1661 11.0926 23.7187 12.9141 23.7187 14.7773C23.7187 17.2759 22.7261 19.6721 20.9594 21.4389C19.1926 23.2056 16.7964 24.1982 14.2978 24.1982Z" fill="#D3FE8A"/>
<path d="M14.2977 7.71184C13.2045 7.71184 12.1562 8.14608 11.3832 8.91903C10.6103 9.69199 10.176 10.7403 10.176 11.8335C10.176 12.1458 10.3001 12.4453 10.5209 12.6662C10.7418 12.887 11.0413 13.0111 11.3536 13.0111C11.666 13.0111 11.9655 12.887 12.1863 12.6662C12.4072 12.4453 12.5312 12.1458 12.5312 11.8335C12.5312 11.4841 12.6348 11.1426 12.8289 10.8521C13.023 10.5616 13.2989 10.3352 13.6217 10.2015C13.9444 10.0678 14.2996 10.0328 14.6423 10.101C14.9849 10.1691 15.2997 10.3374 15.5467 10.5844C15.7937 10.8315 15.962 11.1462 16.0301 11.4889C16.0983 11.8315 16.0633 12.1867 15.9296 12.5094C15.7959 12.8322 15.5695 13.1081 15.279 13.3022C14.9885 13.4963 14.647 13.5999 14.2977 13.5999C13.9853 13.5999 13.6858 13.7239 13.465 13.9448C13.2441 14.1656 13.12 14.4652 13.12 14.7775V17.1327C13.12 17.445 13.2441 17.7445 13.465 17.9654C13.6858 18.1862 13.9853 18.3103 14.2977 18.3103C14.61 18.3103 14.9095 18.1862 15.1303 17.9654C15.3512 17.7445 15.4753 17.445 15.4753 17.1327V15.7667C16.4269 15.4888 17.246 14.8762 17.7816 14.042C18.3172 13.2078 18.5332 12.208 18.3898 11.2271C18.2464 10.2461 17.7532 9.35007 17.0012 8.70408C16.2492 8.05808 15.289 7.70568 14.2977 7.71184Z" fill="#D3FE8A"/>
<path d="M14.2977 21.8434C14.9481 21.8434 15.4753 21.3161 15.4753 20.6658C15.4753 20.0154 14.9481 19.4882 14.2977 19.4882C13.6473 19.4882 13.1201 20.0154 13.1201 20.6658C13.1201 21.3161 13.6473 21.8434 14.2977 21.8434Z" fill="#D3FE8A"/>
</svg>
