<svg width="22" height="22" viewBox="0 0 22 22" fill="none" xmlns="http://www.w3.org/2000/svg">
<path d="M20.5625 0.4375H1.875C1.49375 0.4375 1.12812 0.58895 0.858534 0.858534C0.58895 1.12812 0.4375 1.49375 0.4375 1.875V20.5625C0.4375 20.9437 0.58895 21.3094 0.858534 21.579C1.12812 21.8485 1.49375 22 1.875 22H20.5625C20.9437 22 21.3094 21.8485 21.579 21.579C21.8485 21.3094 22 20.9437 22 20.5625V1.875C22 1.49375 21.8485 1.12812 21.579 0.858534C21.3094 0.58895 20.9437 0.4375 20.5625 0.4375ZM20.5625 20.5625H1.875V1.875H20.5625V20.5625ZM5.46875 11.9375H16.9688C17.1594 11.9375 17.3422 11.8618 17.477 11.727C17.6118 11.5922 17.6875 11.4094 17.6875 11.2188C17.6875 11.0281 17.6118 10.8453 17.477 10.7105C17.3422 10.5757 17.1594 10.5 16.9688 10.5H5.46875C5.27813 10.5 5.09531 10.5757 4.96052 10.7105C4.82573 10.8453 4.75 11.0281 4.75 11.2188C4.75 11.4094 4.82573 11.5922 4.96052 11.727C5.09531 11.8618 5.27813 11.9375 5.46875 11.9375ZM5.46875 7.625H16.9688C17.1594 7.625 17.3422 7.54927 17.477 7.41448C17.6118 7.27969 17.6875 7.09687 17.6875 6.90625C17.6875 6.71563 17.6118 6.53281 17.477 6.39802C17.3422 6.26323 17.1594 6.1875 16.9688 6.1875H5.46875C5.27813 6.1875 5.09531 6.26323 4.96052 6.39802C4.82573 6.53281 4.75 6.71563 4.75 6.90625C4.75 7.09687 4.82573 7.27969 4.96052 7.41448C5.09531 7.54927 5.27813 7.625 5.46875 7.625ZM5.46875 16.25H16.9688C17.1594 16.25 17.3422 16.1743 17.477 16.0395C17.6118 15.9047 17.6875 15.7219 17.6875 15.5312C17.6875 15.3406 17.6118 15.1578 17.477 15.023C17.3422 14.8882 17.1594 14.8125 16.9688 14.8125H5.46875C5.27813 14.8125 5.09531 14.8882 4.96052 15.023C4.82573 15.1578 4.75 15.3406 4.75 15.5312C4.75 15.7219 4.82573 15.9047 4.96052 16.0395C5.09531 16.1743 5.27813 16.25 5.46875 16.25Z" fill="#D3FE8A"/>
</svg>
