<svg width="17" height="10" viewBox="0 0 17 10" fill="none" xmlns="http://www.w3.org/2000/svg">
<path d="M9.68197 0.326C9.69197 0.338 9.69597 0.353999 9.70597 0.365999L16.688 8.08C17.078 8.514 17.078 9.218 16.688 9.652C16.684 9.656 16.68 9.658 16.676 9.66C16.5892 9.76509 16.4805 9.84996 16.3575 9.90869C16.2346 9.96742 16.1002 9.99858 15.964 10H1.99797C1.85919 9.99776 1.7226 9.96507 1.59785 9.90425C1.47309 9.84342 1.36321 9.75595 1.27597 9.648L1.27197 9.652C1.08323 9.43363 0.97937 9.15463 0.97937 8.866C0.97937 8.57737 1.08323 8.29837 1.27197 8.08L8.26997 0.326C8.35709 0.223879 8.46533 0.141872 8.58721 0.08564C8.7091 0.0294075 8.84174 0.000286102 8.97597 0.000286102C9.1102 0.000286102 9.24284 0.0294075 9.36473 0.08564C9.48661 0.141872 9.59485 0.223879 9.68197 0.326Z" fill="#D3FE8A"/>
</svg>
