<svg width="18" height="11" viewBox="0 0 18 11" fill="none" xmlns="http://www.w3.org/2000/svg">
<path d="M9.93931 10.5045C9.94995 10.4917 9.95421 10.4747 9.96485 10.4619L17.3925 2.25557C17.8074 1.79386 17.8074 1.04493 17.3925 0.583225C17.3883 0.57897 17.384 0.576843 17.3797 0.574715C17.2874 0.462918 17.1718 0.372627 17.041 0.310152C16.9102 0.247677 16.7673 0.214525 16.6223 0.213013H1.76485C1.61721 0.215398 1.4719 0.250172 1.33918 0.314877C1.20646 0.379583 1.08957 0.472642 0.996761 0.587481L0.992506 0.583225C0.791719 0.815535 0.681229 1.11234 0.681229 1.4194C0.681229 1.72645 0.791719 2.02326 0.992506 2.25557L8.43719 10.5045C8.52987 10.6131 8.64501 10.7004 8.77468 10.7602C8.90435 10.82 9.04545 10.851 9.18825 10.851C9.33105 10.851 9.47215 10.82 9.60182 10.7602C9.73149 10.7004 9.84663 10.6131 9.93931 10.5045Z" fill="#131313"/>
</svg>
